<?xml version="1.0" encoding="utf-8"?>
<!-- Generator: Adobe Illustrator 16.0.4, SVG Export Plug-In . SVG Version: 6.00 Build 0)  -->
<!DOCTYPE svg PUBLIC "-//W3C//DTD SVG 1.1//EN" "http://www.w3.org/Graphics/SVG/1.1/DTD/svg11.dtd">
<svg version="1.1" id="Layer_1" xmlns="http://www.w3.org/2000/svg" xmlns:xlink="http://www.w3.org/1999/xlink" x="0px" y="0px"
	 width="346.189px" height="618.424px" viewBox="0 0 346.189 618.424" enable-background="new 0 0 346.189 618.424"
	 xml:space="preserve">
<g>
	<g>
		<path fill="#060808" d="M305.791,152.38c-1.125,0.125-2.25,4.75-1.875,8.5c0,0,0,8,3.125,8.125s2.25-6.75,1.75-9.875
			S306.916,152.255,305.791,152.38z"/>
		<path fill="#060808" d="M303.791,135.13c-1.5,0.25-1.125,5.125-1,7.75c0,0,0.375,7.25,2.875,6.75c2.5-0.5,1.647-5.834,1.375-8
			C306.666,138.63,305.291,134.88,303.791,135.13z"/>
		<path fill="#060808" d="M302.916,119.755c-0.875,0-1.875,1.5-1.75,6s1.375,5.875,2.625,5.875s1.625-4.375,1.25-6.5
			C304.666,123.005,303.791,119.755,302.916,119.755z"/>
		<path fill="#060808" d="M20.166,77.255c0.584-0.083,1.333-2.167,0.916-3.25c0,0-1.499,0.25-1.582,1.167
			C19.416,76.089,19.582,77.338,20.166,77.255z"/>
		<path fill="#060808" d="M141.855,266.867c-8.676-0.402-22.332,0.08-22.332,0.08s-13.656,0-13.977,6.025
			c-0.301,5.62,7.969,6.248,11.166,6.587c3.773,0.401,22.571,0,27.392-0.724s7.149-3.855,6.989-5.703
			S147.72,267.138,141.855,266.867z M122.576,277.872c-0.161,0.723-1.285,0.402-2.571,0.241s-3.052-1.768-2.972-5.463
			s4.418-4.177,4.418-4.177c0.964,0,1.125,0.402,1.125,1.125s-1.125,0.964-1.205,2.812c-0.081,1.848,0.24,3.293,0.803,3.775
			S122.736,277.148,122.576,277.872z M127.877,277.711c-0.562-0.321-0.08-4.659-0.16-5.944s-0.964-1.366-1.445-1.607
			c-0.482-0.241-0.486-1.506-0.161-1.606c1.044-0.321,0.964-0.161,1.687,0c0.724,0.161,1.768,1.848,1.928,4.9
			C129.886,276.506,128.439,278.032,127.877,277.711z M134.947,277.711c-1.527,0-3.938,0.321-4.098-0.402s0.965-2.49,1.125-3.855
			c0.16-1.366,0.321-2.49-0.723-3.695c-0.643-0.741,0.16-1.366,0.401-1.446c0,0,5.142-0.321,8.435,0s9.238,1.446,9.158,5.463
			S136.473,277.711,134.947,277.711z"/>
		<path fill="#060808" d="M345.666,21.256c-0.832-2.667-3.166-10.5-4.332-12.333c-1.168-1.833-4.332-3.334-6.834-1.334
			c0,0,0.25-3.5-1.75-5.333c-1.738-1.593-3.584-3.5-5.584-1.167c0,0-5.666,8.833-5,15.833c0,0,1.334,10.5,1.168,14.333
			s-13.166,28.667-13.166,28.667L299.5,79.755c0,0-5.832-1-9.666-0.167s-11.5,4.167-11.5,4.167s-7.334-7-12.834-8.5
			s-12.667,0.5-13,3.333s0.834,3.833,3.667,4.833s6.333,2.167,8.833,5s6.333,6,9,6.5s9.166-0.5,12.5-1s7.667-0.833,7.667-0.833
			s-2,5.667-2.167,10s-0.5,8.833-0.5,8.833s-5.5,3.167-7.5,5c0.334,2.5,3.527,4.171,5.5,4.5c2,0.333,4.667-0.167,5.667-0.333
			c1,6.333,1.833,59.167,1.833,59.167s-1.166,1.833-1.666,2.333s-1,1.167-1,1.167s-1.834-0.5-2.334,0.5s-0.834,2.333-2.167,4.833
			S272.167,213.756,270,216.422s-10,15.167-10,15.167l-14.667-34.833c0,0-1-2-2.5-2.167S225,195.755,225,195.755s-3.833,17-4,19
			s-0.001,3.334,0.666,6.667S234,254.755,234,254.755l-23.167,0.333c0,0,5.999-19.833,4.833-28.667s-7.166-21.5-7.833-24.5
			s-0.501-5.167,0.833-6.5s1.834-2.5,1.834-2.5s4.001-0.333,7.167-5.667s3.334-11.667,2.5-14l-23.334-33.833
			c0,0-7.666-6.666-14.666-5.333s-7.834,2.5-7.834,2.5s-1.834-1.5-2.5-1.167s-1.292,2.917-2.292,3.083s0.292-4.917,0.292-4.917
			l1.5-3c0,0,19.001,0,21.334,0s6.834,0,8-0.833s4.667-8.5,5.5-11.5s1.5-7.333-1.167-7.833s-29,0.333-29,0.333
			s-4.293-0.243-4.518,3.018c-0.161,2.334-0.648,12.649-2.315,12.649s-16.167,0-16.167,0s-1.666-0.166-1.833-2.333s0-7.833,0-7.833
			s-0.833-4.167-4.667-4.5s-22.334,0.333-22.334,0.333s-5-0.167-5,5.167s0.668,10.5,0.668,10.5s0.666,4.334,3.5,4.667
			c2.832,0.333,22.666-0.167,22.666-0.167s0.667,1.334,1.167,2.667s2.5,5.5,2.5,5.5s-6.667-7-17.667-6.5s-20.5,9.167-21.334,15.667
			c-0.832,6.5,0.001,10.167,2.168,13c2.166,2.833,4.666,5.167,4.666,5.167s-6.167,7.5-7.667,10s-2.833,6.833,0.5,6.833
			s17,0.167,17,0.167l1.5-0.5l0.667-0.167c0,0,3,5.5,4.5,7.833s4.5,6,4.5,6s-1.166,2.833-0.334,6
			c0.816,3.1,7.667,14.667,7.667,14.667H140c0,0-3.334,0.5-3.834,3.5s-1.332,9.5-0.666,11s4.166,3.667,4.166,3.667l0.168,6.167
			c0,0,1.833,0.333,3,1c1.166,0.667,4.666,5,4.666,5l3.167-0.167c0,0,4.334,3.5,4,4.167s-26.5,0.167-34.333,0.5
			C112.5,253.755,106,254.255,106,254.255s-0.333-0.5-1-1.833s-29.667-40.833-31.167-43s-11.499-18.167-11.833-19s-1-1.667-1-1.667
			s-0.166-7.333-3-10.833c-2.152-2.658-5.667-3.167-5.667-3.167s-3.124-16.253-4.833-25.167c-2.334-12.167-3.667-27.5-3.667-27.5
			s5.072-3.775,4.667-8.333c-0.667-7.5-7.667-7-7.667-7l0.333-2l21.5-0.5c0,0,5.834,0,6-3.333c0.167-3.333-3.666-7-7.5-8
			c-3.833-1-13.666-0.833-13.666-0.833l-6.167-4.5c0,0-0.333-1.333,0.167-1.833s1.666-2.823,1.666-8c0-6.167-4-9-4-9
			s1-3.333,1-4.667s0.168-6.833,0.668-7.667s1.833-1.5,3-2.667c1.166-1.167,1.666-3.667,1-5.667c-0.668-2-3-4-3-4
			s1.166-2.834,1.332-3.667c0.167-0.833,0.5-2,1.167-2s2-1.333,2.333-4.333c0.334-3-0.833-5-0.833-5s0.333-3.5,0.333-4.167
			s-0.333-8.167-1-9.5c-0.666-1.333-1.833-2-1.833-2s-2.667,2.167-3.5,4.167s-2.667,5.666-3.167,6.833s-2.5,3.167-3.5,3.5
			s-2.333,1.833-2.5,4c-0.166,2.167,0.167,3.5,0.5,5c0.334,1.5-0.5,6.167-0.5,6.167S30,45.255,29.5,45.422S27,47.256,27,48.089
			s-0.5,4.5-0.334,5c0.167,0.5,1,0.5,1,2.167s-1.332,1.5-1.166,2.667s0,3.167-0.834,3.5c-0.833,0.333-2-0.833-2-2
			s-2-6.166-3.5-8.833s-2-4.167-2-4.167s-0.833-4.5-1.333-6.167S15.5,34.922,15.5,34.922s2.5-3.5,2.833-4.333
			s2.167-2.333,2.167-4.833s-0.667-9.333-0.667-9.333H13.5L1.833,28.089c0,0-1.833,3.5-1.833,5.333s0.666,3.5,0.666,3.5
			s0.334,1,0.5,2.167C1.333,40.255,2,46.422,2,48.589s1.166,6.667,1.666,8.5s3.334,7.333,4.5,9.167c1.168,1.833,5.5,7.167,5.5,7.167
			S14,77.755,14,80.755s2.333,7.833,3.333,9.5s6.333,6,6.333,6s1.168,1.667,0.834,3.833s-1.166,5-1.166,8.5s0.332,7.167,0.332,7.167
			s-2.166,4.667-2.666,6.5s-1.834,4.167-0.666,6.5c1.447,2.894,6.832,1.667,6.832,1.667s2.826,21.244,4,29.167
			c1.334,9,4.834,21.333,4.834,21.333s-1,5.166-0.167,9.333s3,8.167,3,8.167s-0.561,4.083,0.501,8c1.755,6.481,13.5,28.333,24,41
			c0,0-2.751,4-3.168,7.5c-0.236,1.993,0,8.5,0.167,9.333s1,1.833,2,2.833S86.5,285.422,86.5,285.422s3.166,1.5,5.333,0.833
			s3.667-1.833,3.667-1.833s4,3.5,5.666,4.167c1.667,0.667,5.5,0.167,8,0.333s15.334,0.333,15.334,0.333s1.333,4,2.666,7
			c1.334,3,2,5.5,4.168,5.833c2.166,0.333,5.166,0.5,5.166,0.5s1.5,2.667,1.833,4.5c-1.333,0.833-6.333,3.333-7,10.333
			c-0.43,4.508,0.438,13.045,4.5,16.666c6.167,5.5,13.333,3.5,13.333,3.5s4.835,10.834,7.501,15.834s3.999,7.834,4.166,9.668
			c0.167,1.832,2.333,4.334,4.5,4.5s6.008,0.803,8.834,1c7.166,0.5,10.833-1.334,10.833-1.334s10.667-0.5,13.5,0
			s4.666,2.5,5.833,3.834c1.167,1.332,3.001,2.166,2.834,3.666s-1.5,4.998-1.667,5.832s-1.834,3.168-2.334,4.168
			s-12.165,24.334-15.499,34.666c-3.334,10.334-5.167,17.332-5.667,19.666s0,7.334,0,9.668c-0.833,3.832-3.305,10.854-3.667,12
			c-1,3.166-2.667,14.332-2.667,14.332s-6.166,2.166-10.666,5.5s-6.667,7.668-6.667,7.668l-14.667-0.5c0,0-3.5-7.666-10-7.834
			c-6.5-0.166-42.332,1.166-42.332,1.166s-10.668,7.836-13.001,11.668c-2.333,3.834-5.167,7-6.667,8.834
			c-1.5,1.832-5.833,7.498-7.166,9.832c-1.334,2.334-7,11.334-8,14.5c-1,3.168-5,7.668-6,9.834s-3.667,6-4.5,7.666
			c-0.834,1.668-5,10-5.667,11.168c-0.667,1.166-3.667,5.498-4.167,6.332s-2.667,5-3,6.5s-2.666,6.168-3.833,7.668s-4.5,7.332-5,8.5
			c-0.5,1.166-3.501,8-4.167,9.666s-2.5,6.166-2,10.166s2.5,5.834,4.167,7.668c1.667,1.832,7,5.832,7,5.832
			s55.999,0.168,59.999,0.168s33.168,0.5,37.334,0.5s67.334,0.834,69.667,0.834s77.001-0.502,79.167-0.502s35-0.332,35-0.332
			s4.834,0.666,9.834-4c5-4.668,5.832-12.168,4.832-15c-1-2.834-7.332-21.834-8.5-24.834c-1.166-3-12.667-38.5-13.667-40.666
			c-1-2.168-2.333-8.334-2.833-9.834s-5.166-12.334-6-14.334s-3.668-12.5-3.834-13.5s-3.5-9.332-4-10.666s-3.334-7.834-10-8.834
			S257,475.59,255.166,475.59s-24.667-0.666-26.667-0.834c-2-0.166-2.833-0.834-2.833-0.834s3.832-13.332,5.666-18.166
			c1.834-4.832,3.5-8.832,3.5-9.832s1.334-3.168,1.334-3.168s2.25-1.502,3.417-3.334c1.167-1.834,3.415-6.666,3.749-8.332
			s-0.166-3.334-0.833-3.834s-1.5-1-1.5-1l-0.333-1.5c0,0,2.5-0.834,3.5-1.166c1-0.334,3.333-2.832,3.333-4.666s0.667-4.502,1-5.334
			c0.333-0.834,1.333-4,1.833-4.834c0.5-0.832,1.668-5.5,1.334-7.166c-0.334-1.668-0.834-1.834-1.667-1.834
			s-1.667-0.334-1.667-0.334l1-1.5c0,0,1.898-4.131,2.5-5.332c0.667-1.334,1.942-2.793,1.667-5c-0.5-4-3.5-5.666-4-5.834
			c0,0,1.833-3,1.333-4.666c-0.5-1.668-1.833-3-1.833-3s2.167-3.002,1.667-5.334c-0.5-2.334-1.667-3.5-1.667-3.5
			s-0.667-0.5-0.167-0.834c0.5-0.332,1.666-3.332,1-5c-0.666-1.666-2.5-3-2.5-3s1.001-3,0.334-3.832
			c-0.667-0.834-2.334-1.834-2.334-1.834s0.501-2.5-1.166-3.834c-1.667-1.332-3.334-2.166-3.334-2.166s-0.5-1.832,0.667-2.5
			c1.167-0.666,7.667-1,8.5-0.834c0.833,0.168,10,0.168,10,0.168s3.499-0.834,5.333-3.668c1.834-2.832,2.5-9.5,2.5-9.5
			s11.835,0.5,13.501-0.666s6.499-10.334,7.666-12.334s2.001-5.166,1.667-7.5c-0.334-2.332-5.334-13.833-5.667-14.5
			s-3-5.833-3-5.833s20.333-11.833,23.333-13.333s6.166-3.167,7-7.667s0.5-9.167-1-11.333s-3.834-4.167-6.5-3.667s-6,1.667-7.5,2
			s-16.333,1.667-16.333,1.667s2.334-5.666,3.834-7.333s5.834-9.333,7.5-12.5s6.333-12.5,7.666-14.833s6-10,8.001-13
			c2-3,6-9.834,7.666-12.167s3.334-4.167,3.334-6.333s0.324-12.461,0-14.333c-0.666-3.833-3-5-3-5s-2.668-23.5-3-27.5
			c-0.334-4-6.168-25.667-6.168-25.667s4.002-1.334,4.834-2.167c0.834-0.833,0.834-3.833,0.834-5.833s-0.834-3.167-1.5-2.667
			c-0.668,0.5-4,1.5-4,1.5s0.668-10.833,0.334-12.167c-0.334-1.333-1-2.5-1-2.5s7.5-9.5,8.833-11.333c1.334-1.833,2.668-5.5,3.168-7
			s0.832-3.667,0.832-3.667s15-13.166,17.834-15.833s5.166-8.334,6.166-14.167s2.334-11.666,2.668-12.833
			C346.166,26.756,346.5,23.922,345.666,21.256z M263.916,79.505c0,0-2.875-0.75-5.625,0c-2.106,0.574-3.25,0.625-3.625-0.25
			s1.125-2.625,4.5-2.75s6.75,1.125,8.75,2.25s5.75,3.375,5.25,4.125s-1.25,1-2.75,0S265.916,79.88,263.916,79.505z M277.541,89.88
			c-0.157,0.996-1.875,3.125-3.875,2.75c-1.639-0.307-2.25-2.5-2-3.5s1.125-4.25,3.375-4
			C276.413,85.283,277.916,87.505,277.541,89.88z M336.791,8.63c1.375-0.25,2.414,0.008,3.375,2.125
			c1.25,2.75,3.5,10.625,3.5,10.625s-1.625-0.75-3.125-0.5c-2.096,0.349-3.875,3-3.875,3s-1.625-6.875-2.125-10.25
			S336.791,8.63,336.791,8.63z M328.416,5.88c0.875-0.75,0.5,11,0.5,11l-3.625,7.375c0,0-0.25-6.625-0.25-9.25
			S328.416,5.88,328.416,5.88z M324.041,37.13c0.625,0.25,0.5,6.875,0.25,7.5s-3.375,5.875-4.5,7.625s-5,6.125-5,6.125
			s0.75-0.875-1.125,0.875c-1.041,0.973-1.125,0-1.125,0L324.041,37.13z M291.666,86.755c-1.875,0.125-6.875,1.875-8.375,1.875
			s-2.5-0.5-2.5-2.125s2.25-2.125,2.25-2.125c0.625-0.25,5.125-2.125,8.375-2.5s6.875,0,6.375,0.75s-0.625,3.125-1.125,3.5
			S293.541,86.63,291.666,86.755z M294.666,101.255c0.75-4.625,2.5-9.125,5.25-10.25s5.375,2.875,5.875,5.375
			c0.5,2.5-0.25,11.5-0.25,11.5l-2,0.5c0,0,0.306-4.629,0.125-8.25c-0.125-2.5-1.941-4.081-4-3.5c-3.681,1.038-4.25,13.5-4.25,13.5
			l-1.875,0.875C293.541,111.005,293.916,105.88,294.666,101.255z M277.166,211.88l3.375,3.625c0,0-14.25,28-15.625,30.375
			s-2.767,5.83,0.875,8.5c3.75,2.75,11.625,2.25,11.625,2.25s-13.625,19.125-14.875,21.375s-4.5,8.75-8.125,9.125
			c-4.504,0.466-8.125-2.625-11.625-8.375c-3.146-5.169,0.5-13.5,3.875-20.875S277.166,211.88,277.166,211.88z M141.322,176.959
			v-1.703l3.746-0.227v-1.249l-3.859-0.227l0.227-1.362l30.194-1.021c0,0-0.795,1.362-0.908,2.043s0,3.292,0,3.632
			s-4.427,0.341-7.151,0.114S141.322,176.959,141.322,176.959z M158.916,198.13l-1.5,8.875c-1.875-4.625-8.125-10.75-9.125-11.375
			s-3.875-0.75-3.875-0.75l-4.125-8.25L158.916,198.13z M162.424,148.205c1.944,0.259,3.565-0.194,3.565-0.194
			s-0.448,6.495,0.389,10.241c1.056,4.724,7.195,9.917,7.195,10.112s-1.427,1.75-1.945,1.75s-24.695,0.583-27.159,0.389
			s-0.519-2.333-0.064-3.241s2.262-5.006,2.262-5.006c0.5-1.125,1.875-2.25,2.25-5.625c0.279-2.516,5.75-8.375,5.75-8.375
			S160.479,147.945,162.424,148.205z M158.729,140.75c0.584-0.064,2.398-0.454,2.787-0.389s0.13,3.5,0.13,4.861
			c0,1.311-1.103,0.908-1.88,0.843s-0.907-0.324-0.973-1.231s-0.519-1.426-0.713-2.204S158.525,140.773,158.729,140.75z
			 M176.397,173.213c0.908,1.021,5.562,0.567,7.832,0.454s7.379-1.362,7.379-1.362l0.227,3.632c0,0-10.216,0.454-12.827,0.341
			s-6.811,0.113-6.924-0.341s-0.113-2.157,0.795-2.951s2.61-3.632,2.61-3.632C176.624,169.467,175.489,172.191,176.397,173.213z
			 M201.37,173.326l-1.816,1.476l-7.492-9.875l1.816-1.589L201.37,173.326z M194.786,161.861l1.249-1.362l7.037,10.103l-0.908,1.249
			L194.786,161.861z M198.873,175.937l-0.795,0.567l-7.832-10.103l0.794-0.681L198.873,175.937z M216.544,276.956
			c0,0-10.608,0.487-14.541-0.635c-3.711-1.059-5.58-4.215-4.847-5.251s4.083-1.702,5.886-1.962
			c1.054-0.152,4.462-0.497,4.462-0.497h10.233c0,0-1.555,2.548-1.598,4.361S216.544,276.956,216.544,276.956z M194.541,267.63
			c-1.375-0.125-3.5-6.5-5.125-11.625s-7.75-21-8.375-23.125s0.75-4.75,0.75-4.75c0.5-0.625,1.5-2.625,3.25-2.625
			c2.628,0,5.5,10.875,6.375,13.5s5.125,13.375,6.125,18.625S195.916,267.755,194.541,267.63z M187.416,289.38
			c0,0,5.125,3.625,7,4.5s10.75,6.125,10.75,6.125s-0.25,1-0.375,1.375s-3.25,2.875-3.25,2.875s-2.25-1.625-4.125-2.75
			s-8.375-5.25-9.875-6.375s-3.5-0.5-3.5-0.5l2.5-5.375L187.416,289.38z M179.041,234.88h-15.125c0,0,0-4.625,0.125-6
			s1.25-3,2.5-3.125s15-0.75,15-0.75s-2.875,2.75-3,5.25S179.041,234.88,179.041,234.88z M182.407,247.18
			c1.604,0,1.926,1.819,1.604,2.14s-9.628,0.856-10.805,0.856s-3.103,0.428-3.637,0.856s-3.316,4.279-3.316,4.279
			s-2.247-4.279-2.781-4.921s-0.107-2.14-0.107-2.14C165.505,248.036,180.803,247.18,182.407,247.18z M196.916,246.505
			c-1.375,0-2.875-6-3.5-8s-1.75-5.875-3.125-9.75s-3.125-5.375-4.875-5.75s-8,0.375-8.875,0.25s0.625-2.5,0.75-3.75
			s0.125-4,1.625-5.375s3.75-3.625,5.125-3.625s3.125-0.25,6.25-2s6.125,8.25,8.125,16.875S198.291,246.505,196.916,246.505z
			 M191.166,187.88c0.875-0.75,2.375-1.25,2.875-0.875s0,1.5,0,1.5s-9.5,11.5-10,11.875s-1.75,0.5-2.25,0s-0.125-2.125-0.125-2.125
			L191.166,187.88z M185.024,177.526l7.151-0.113l0.113,1.589l-7.151,0.341L185.024,177.526z M193.537,174.688l0.228-1.816
			l3.405,3.632l-1.249,0.908L193.537,174.688z M175.916,190.505c0.125,2.375-0.375,3.25-1.5,3.125s-6.625-0.875-6.625-0.875
			s0.25-4.5,0.5-5.25s3-1.375,5.75-1.125S175.817,188.629,175.916,190.505z M162.416,201.63c0.625-0.875,2.372-3.812,4.125-3.75
			c3.5,0.125,4.375-0.5,5-1.5c2.5-0.375,6.25,1.75,6.25,1.75s-1.25,0.75-4.625,3.875s-9.25,12.75-9.25,12.75
			c-0.5,0.625-0.5,0.5-1.125,0.125s-0.25-7-0.375-8.375s-1.25-1.25-1.625-2.25S161.791,202.505,162.416,201.63z M161.666,222.255
			l15.125-20.25c0,0,0.875-0.75,2.375-0.25s4.375,2.625,3.875,3.5s-3.375,2.75-3.75,3.5s-11.75,14.5-12.375,14.75
			s-2.75,0.625-3.875,0.125C162.459,223.372,161.416,223.13,161.666,222.255z M171.71,252.101
			c1.498-0.642,12.943-0.749,12.943-0.749l0.856,1.926c0,0-3.852-0.107-5.777,0s-5.884-0.214-7.061,0.749
			s-6.418,12.409-6.846,13.479s0.32,2.14,0.32,2.14h11.126c0,0-1.712,3.316-2.247,3.744s-10.59,0.535-12.623,0.535
			c-1.938,0-2.675-0.214-2.567-2.247s1.391-3.745,2.567-6.74S170.212,252.743,171.71,252.101z M169.791,276.005
			c1.125-0.125,4.5-0.25,4.5-0.25s4.875,13.875,6,16c0.597,1.126,0.125,1.75-0.5,1.75c0,0-17,0.125-18.375,0.125s-4,1-5.125,1.125
			s-1.125-1.625-0.625-3.75s2.125-6.625,2.625-8.875s1.75-6,1.75-6S168.666,276.13,169.791,276.005z M180.666,296.005l-2,5.125
			c0,0-13-0.125-16.125,0.375s-6,1.625-6.625,1.5s-0.625-2.125-1-2.75s-1.375-3.75-1.375-3.75L180.666,296.005z M177.916,279.63
			c-0.125-0.625-0.75-3.875-0.75-5s2.25-5.125,2.25-5.125l0.75-0.25c0,0,0.375,2.5,0.875,6.625s4.625,10.625,4.625,10.625l-3,7.125
			c0,0-0.375-1-0.875-2.375S178.041,280.255,177.916,279.63z M183.416,296.63c0,0,1.75-0.5,3.75,0.75
			c2,1.25,13.75,8.375,13.75,8.375l0.625,1l-2.625,4.25l-17.5-9.875L183.416,296.63z M202.666,307.756
			c4.625,8.375,17.625,33.625,22.875,49.25l-1.75,4.5c0,0-8.5-20.75-12-28s-11.375-21.625-11.375-21.625L202.666,307.756z
			 M225.041,350.506c-0.25-1-5.5-12.625-8-17.75s-13.25-27-13.25-27l2.5-2.875c0,0,1.875,3.25,2.25,4.375s8,21.125,9.125,23.25
			s11.5,22.125,11.5,22.125l-2.375,2.625C226.791,355.256,225.291,351.506,225.041,350.506z M227.541,288.505
			c1.875-0.125,3.813,0.406,6.625,0.875c1.5,0.25,9.75-0.25,11.5-0.125s3.625,0.125,3.625,0.125l4.875,11.125
			c0,0-7.75,0.5-11.75,0.75s-9.5,1.25-9.5,1.25l-6.5-11.75C226.416,290.755,225.666,288.63,227.541,288.505z M242.999,197.644
			c0-0.313,1.147,2.296,1.982,5.114s12.941,32.665,12.941,32.665l-7.515,10.75l-9.81-30.056
			C240.599,216.116,242.999,197.957,242.999,197.644z M226.51,200.775c0.313-1.983,0.313-2.922,0.313-2.922l13.88-0.626
			c0,0-1.361,10.779-1.774,13.462c-0.418,2.713-0.313,5.531-0.313,5.531l-15.132,0.522
			C223.483,216.742,226.196,202.758,226.51,200.775z M223.797,218.934l15.444-0.522l9.497,30.787c0,0-3.025,3.966-3.443,5.949
			s-1.357,3.339-1.879,3.339c-1.565,0-0.825-2.296-3.026-2.296c-2.4,0-3.026-1.043-3.026-1.043L223.797,218.934z M215.276,257.671
			c0,0,16.265-0.541,18.14-0.416c0.5,0.75,2.125,1.125,3,1.375s2.125-0.25,2.625-0.125s1.25,1,1.25,1s-4,6.625-2.75,13.125
			s7.75,14.375,7.75,14.375s-22.625-0.25-29.625-0.25s-18.875,0.375-22.375-3s-5.5-6.625-5-10.75s0.875-8.25,1.75-7.875
			s1.875,4.125,3,4.5s1.875,0.25,1.875,0.25s0.337,4.303,2.375,5.875c2.23,1.72,4.424,2.932,8.177,2.812
			c2.624-0.084,21.895,0.119,23.948-0.062c2.693-0.236,6.625-1.375,5.875-5.375s-4.956-5.821-6.456-6.321
			s-11.062,0.148-14.437,0.148s-11.872-0.03-13.261,0.766c-1.135,0.651-3.306,1.152-3.306,1.152s1.218-3.907,1.21-5.093
			c-0.023-3.627-0.063-7.13-0.063-7.13s4.796,0.255,5.921,0.255c0.382,0.955,0.978,1.153,2.228,1.528
			S215.276,257.671,215.276,257.671z M221.321,273.016c0.149,1.935,1.561,4.062,1.561,4.062h-4.614c0,0-0.365-2.837-0.099-4.753
			c0.216-1.554,1.209-3.713,1.209-3.713h2.894C222.271,268.612,221.172,271.081,221.321,273.016z M208.416,234.38
			c0.75,7.875-4.125,20.75-4.125,20.75l-4.75-0.125c0,0,4.375-7.125,5.625-17.75c1.025-8.716-2.75-24.5-5.375-29.25
			c-0.596-1.078-0.515-2.337-0.125-2C203.771,209.563,206.966,219.154,208.416,234.38z M218.416,174.63
			c0.75,1.25-0.125,2.625-1.125,3s-0.875,3.875-1.375,6.625s-6.25,6.875-6.25,6.875l-10.875-13c0,0,3.875-2.875,6.5-6.75
			c2.289-3.379,3.125-12.125,3.125-12.125S217.666,173.38,218.416,174.63z M199.895,146.877l6.811,9.989v2.384l-6.924-9.989
			L199.895,146.877z M199.554,151.304l7.038,10.103l-0.113,2.271l-6.925-10.67V151.304z M198.873,154.483l7.265,10.33l-0.454,2.157
			l-7.265-10.784L198.873,154.483z M197.511,157.662l7.491,10.557l-1.021,1.362l-7.037-10.33L197.511,157.662z M169.916,146.255
			c2.5-3.125,1.375-4.375,3.5-6.375c6.2-5.835,15.025-3.457,18.25-2c3.875,1.75,6.308,9.61,4.75,16.75c-1.5,6.875-8,10.625-9.5,11.5
			c-0.87,0.508-6.375,0.5-8.25,1c-3.521,0.939-6.248-0.746-9.625-7.5C166.291,154.13,169.916,146.255,169.916,146.255z
			 M149.336,130.523c-1.317-0.287-1.687-4.722-2.023-7.869s-1.236-4.946-2.811-5.059s-13.041-0.225-16.525-0.113
			s-4.271,1.461-4.385,3.935c-0.111,2.473,0.787,6.408,0.787,7.083s0.338,1.911-1.236,0.899s-1.911-7.87-2.023-10.68
			s1.461-4.272,1.461-4.272c1.012-0.899,2.248-0.787,5.284-0.787s15.063-0.337,17.874-0.225s3.598,2.585,3.598,7.757
			s1.349,6.745,3.26,6.97s13.49,0,17.425-0.337c3.757-0.322,4.047-8.544,3.935-10.905s0.338-3.709,1.799-3.709
			s22.146-0.225,25.519-0.45c2.58-0.172,2.863-0.375,1.799,4.834c-1.125,5.508-4.385,11.375-6.52,11.242
			c-1.799-0.113,1.236-6.071,1.573-7.982s-0.449-3.373-3.598-3.485s-12.028,0.337-15.176,0.674s-3.261,3.485-3.598,5.509
			s-1.799,3.373-2.586,4.384s-2.533,1.262-5.059,2.136C165.187,131.085,151.922,131.085,149.336,130.523z M142.791,138.63
			c0.75,0.375,3.875,3,5.25,3.875s4.875,3.25,4.875,3.25s-0.5,2.75-1,2.625s-3.375-4-6.125-4.875s-5.125-5.375-5.125-5.375
			C141.291,138.005,142.041,138.255,142.791,138.63z M114.041,158.505c-4.375-8.5,2.625-15.125,2.625-15.125
			c3.375-3.125,7.25-6.25,13-6.875s12.438,3.111,13,11.875c0.625,9.75-5,18.25-12,19.25
			C124.744,168.476,118.416,167.005,114.041,158.505z M128.791,182.13c0,0-16.375,0.25-17.375,0.125s-0.75-1.125,0-1.875
			s3-3.5,3.125-4.625s4.625-6.625,4.625-6.625l0.125,1.75c0,0-2.75,4-3.125,5s-0.25,3.375,0.125,3.375s2.375-0.25,3-0.375
			s8.625,0.125,8.625,0.125l7.25-9.375l1.75,0.25L128.791,182.13z M132.541,185.88c-0.75-0.875-1.549-2.906-0.75-3.625
			c1.25-1.125,2.682,0.305,3.5,1.25c1.625,1.875,7.25,11.75,7.25,11.75l-2.625,1.5L132.541,185.88z M151.541,231.505
			c0,0-5.875,0.125-7.125,0.75s-4.75,1.25-5.625,0.75s-0.75-5.25-0.5-6.75s0.625-5.875,1.75-6s12.125,0.25,12.125,0.25
			L151.541,231.505z M150.916,204.63c-1.25-1.5-1.625-2.5-3.625-2.25s-2.125,3.625-1.75,5.5s5.375,9.75,5.375,9.75l-0.625,0.75
			l-2.25,0.125c0,0-5.781-10.198-7-14.125c-1.125-3.625,1.125-7.375,4.875-7c2.376,0.238,9.25,10.875,9.25,10.875l-0.375,2.375
			C154.791,210.63,152.166,206.13,150.916,204.63z M153.791,231.63l0.75-10.875l7.75,5.125c0,0-0.5,4-0.5,5.25
			s-0.25,4.125-0.25,4.125L153.791,231.63z M50.666,178.255c0,0-0.188,2.673,0.125,4.625c0.5,3.125,2.75,5.25,2.75,5.25l-2.5,0.25
			c0,0-0.875-2.625-2.125-4.125s-3.125-3-3.125-3s-2.125-15-3.625-23.125s-4.625-29.75-4.875-30.75s-2.125-7.5-2.375-8.375
			s0.75-1.875,2.625-2.5s3.25,0.375,3.5,8.125S50.666,178.255,50.666,178.255z M41.541,100.88c-1,0.625-2.875-0.25-2.875-2
			s1.875-2.125,1.875-2.125c1.5,0.25,1.875,0.875,2,2.25S42.541,100.255,41.541,100.88z M58.166,94.255c4.125,0.5,6.375,3.75,7.5,5
			s-0.5,2.875-2.125,3s-3-4-3.75-5.125s-3.25-1.625-4.625-1.75s-1.75-0.375-2.25-1.125S58.166,94.255,58.166,94.255z M52.291,96.63
			c1.5,0.375,5.125,3,4.375,3.125s-3.375-1.625-4-1.75s-1.5,1-2.75,1s-4.125-2.625-4.125-2.625
			C47.291,96.255,50.791,96.255,52.291,96.63z M44.666,91.755c0.375,0.375-0.875,0.25-2,0s-2.125-1.125-2.625-1.125
			s-2.875,0.125-3.625,0.125s-3-2.25-3.875-3s0.25-1.125,0.25-1.125c0.75,0.125,2-0.125,2.75-0.125s3.625,1.125,4,1.5
			S44.291,91.38,44.666,91.755z M35.166,93.505c-0.625-0.375-2.75-2.375-3.625-2.5s-2.75-0.25-2.75-0.625s1.25-1.5,1.25-1.5
			c0.625,0,1.25,0.125,2,0.875s5,3.25,5.75,4.5S35.791,93.88,35.166,93.505z M35.291,106.63c0.125,1.5-3.125,3-4.375,3.25
			s-1.625-3.25-1.625-5.25s0.875-5.125,0.875-5.125c1.375-0.75,1.625,0.75,2.75,1.75S35.166,105.13,35.291,106.63z M27.791,87.505
			c0,0,0,0-0.625-0.75s-2.875-4.5-2.5-9s3.875-5.5,3.875-5.5c2-0.125,3.229,0.057,5.375,4.125c2.375,4.5,1,8.25,1,8.25
			s-1.875,0.25-3.25,0.625S27.791,87.505,27.791,87.505z M26.916,112.88c-1.125,0.625-1.375,0.75-1.5-1.25s0.25-7,0.25-7
			c-0.125,2.375,2.5,5.375,2.875,6.125S28.041,112.255,26.916,112.88z M41.083,20.339c0.833-1.167,1.75-4.25,1.75-4.25
			c0.583-0.583,0.667-0.167,0.917,0.5s0.833,6,0.5,7.167c-0.334,1.167-2.584,0.667-3.834-0.167S40.25,21.505,41.083,20.339z
			 M33.75,37.339c0.5-1.417,1.083-4.667,1.083-4.667c0.333-1.083,0.167-0.25,0.917-0.167s1.666,1.833,3.25,1.917
			c1.583,0.083,2.75-0.833,3.083-1.417s0.833,1.083,0.833,1.75s-0.083,1.917-0.583,3.833s-1.917,2.5-4,2.667s-3.5-0.083-4.083-0.167
			C33.666,41.005,33.25,38.755,33.75,37.339z M29.25,57.839c0.166-0.667,1.333-3.333,1.333-3.333c0.583-1.333,1.5-4.167,1.5-4.167
			s0.833,0.25,2.75,0.833S39,49.922,39,49.922s0.5,0.917,0,3.083s-0.084,6.333-0.417,6.833S37,60.005,35.416,59.422
			s-3.25-1.083-4.75-0.667S29.083,58.505,29.25,57.839z M17.833,51.755c1,0.833,2.75,4.25,2.667,5.333
			c-0.084,1.083-2.584,2.917-3.5,2.75c-0.917-0.167-1.75-2.583-2.667-3.5s-3.083-2.75-3.083-2.75l2.583-2.417c0,0,0.5-0.917,1.5-1
			S16.833,50.922,17.833,51.755z M15.082,42.839L15,44.339l-4.75,2.667l-0.084-1.833L15.082,42.839z M9.916,43.589l-0.25-2.5
			c0,0,2.25-0.667,3.666-0.75c1.417-0.083,1.5,0.75,1.5,0.75s-1.5,0.833-2.166,1.083S9.916,43.589,9.916,43.589z M14.166,20.172
			c-0.084-1.75,1.416-2,1.416-2c1.5,0,2.202-0.006,2.334,0.917c0.166,1.167,0.084,0.417,0.166,2.5
			c0.084,2.083-0.75,2.667-2.582,2.583C13.666,24.088,14.25,21.922,14.166,20.172z M13.833,36.755c0.274,1.275,0.083,1.667-0.75,2
			s-2.917,0.5-3.417,0.583s-1.25-0.417-1.75-1.833s0.75-1.833,0.75-1.833c0.416,0,2.334-0.583,3.334-0.5
			C13.165,35.27,13.582,35.589,13.833,36.755z M11.832,20.672c0.417-0.333,0.584-0.417,0.584-0.417s0.334,0.917,0.334,1.917
			s-1.168,4-2,5.75c-0.834,1.75-3.668,6.417-3.668,6.417s0.084-4.75-0.166-5.75S5,27.839,5,27.839L11.832,20.672z M1.582,34.339
			c-0.583-1.417,1.25-4.333,1.25-4.333c1-0.667,2.668-1.25,2.834,0.25s-0.75,3.833-1.416,4.417
			C3.583,35.255,2.166,35.755,1.582,34.339z M3.332,44.172c-0.083-0.833-0.666-4.333-0.75-5.5c-0.083-1.167,1.334-1.833,2.084-2
			c0,0,0,0,0.916-0.083c0.917-0.083,1.168,1.167,1.25,2.583c0.084,1.417,0.918,5.917,0.834,6.917S6.332,47.505,5,47.589
			C3.666,47.672,3.416,45.005,3.332,44.172z M4.916,52.172c-0.167-2.083,0.667-3.167,0.667-3.167c0.833-0.083,0.833,0.833,1.5,1.667
			s2.5,2.333,2.917,4.5c0.416,2.167-1.75,3.083-2.75,3.083S5.083,54.255,4.916,52.172z M15.75,73.672
			c-0.084-0.833-0.75-1.333-1.75-2.5s-3.418-4.417-4-5.083c-0.584-0.667-3.084-5.417-2.834-6.25s1.666-0.167,2.416-0.5
			s1.584-1.75,1.584-1.75c0.416-0.583,0.917-0.417,1.334,0.167c0.416,0.583,1.333,2.583,1.916,3.833s2.334,6.583,2.917,6.833
			s2.083,0.25,2.167,0.833c0.083,0.583-0.75,0.917-1.417,1.917s-1.167,3.833-1.667,4.333S15.833,74.505,15.75,73.672z
			 M21.541,91.505c-1.75-1.625-5.25-7.25-5.25-9.75s1.25-1.875,1.625-3.25s0.5-4.625,1.125-5.75s4.25-4.25,5.875-4.5
			s6.25,0.625,7.875,1.125s4.5,2.125,5.25,2.875s2.375,3,2.5,6.375s-0.875,7.5-0.875,7.5l-2.25-1.125c0,0,0.25-4.25,0-5.75
			s-2.75-8.625-7.375-9.125s-7,4.125-7,6.5s-0.375,6.5,0.875,8.125s2.75,3.625,2.75,3.625s0.375,4.625,0.125,5.25
			S23.291,93.13,21.541,91.505z M24.166,122.005c0,0,0.5-4.875,3.875-8s7-4.75,9-4.875s3.875-0.375,5.25,0.75s3,2.875,3,4.5
			c0,0-8-0.625-8.875-0.375s-5.875,1.375-7.25,2.5S24.166,122.005,24.166,122.005z M37.666,180.505c0,0-5.125-21.875-6.25-32.25
			s-3.25-19.25-3.25-19.75s1.5-4.25,1.625-5.375s1.125-4.125,2.125-4.125s5,23.75,6.25,31.125s4.875,29.75,4.875,29.75
			s-2.5-0.75-3.375-0.5S37.666,180.505,37.666,180.505z M39.916,185.63c0.25-2.25,1.875-3.125,2.75-2.5s5.5,5.25,5.625,6
			s-2,0.875-3.25,1.625s-3.5,2.75-3.5,2.75C40.291,192.63,39.666,187.88,39.916,185.63z M53.291,227.88
			c-5.875-11.875-8.75-17.875-11-21.5c-2.008-3.235-0.625-8-0.125-9.75s4.625-4.375,6-4.75s2.5,0.125,3.5-0.25
			s2.25-1.75,5.875-0.875c4.018,0.97,5.875,6.625,8.625,10.75s29,42.125,29,42.125s-0.5,0.5-1.375,1s-3.5,3.125-3.5,3.125
			s-11.875-16.75-13.125-18.125s-2.875-0.875-2.875-0.875s-2.625,1-3.75,2.375s0.375,3.375,0.375,3.375l12,16.125
			c0,0-2.375,2.625-3.75,4.125s-1.5,4.5-1.75,7.25C70.629,253.015,58.666,235.505,53.291,227.88z M84.583,281.672l-21.667-17.583
			c0,0-0.666-4.25-0.583-6.333s0.333-5.833,2.25-8.25c0.857-1.081,1.833,0.583,1.833,0.583c0.583,0.833,2.334,3.583,2.334,3.583
			s-1.75,0.833-2.25,3.417s0.082,7.667,0.082,7.667l18.251,16.333L84.583,281.672z M89.666,279.38c0,0-9.5-11.875-10.375-14
			s-0.375-4.25,0.375-7.375s4.375-5.5,5.125-6.25s0-1.5,0-1.5s-11.125-15-11.75-15.75s-0.875-1.875-0.875-2.375s1.375-1.375,2-1.625
			s1.875,0.375,1.875,0.375l13.25,18.25l1.5,0.375c0,0,2.25-2.875,3.625-3.625s2.5,0.625,2.5,0.625l6.5,6.875l-0.125,1.625
			c0,0-5,1.25-9.125,7.75C90.078,269.197,89.666,279.38,89.666,279.38z M130.666,299.881c-0.375-0.625-4-10.5-4-10.5l2.375,0.25
			l3.75,10.625C132.791,300.256,131.041,300.506,130.666,299.881z M110.791,286.255c-1.125,0.125-7.875-0.5-9-1
			s-8.875-3.625-8.375-10.25s3-12.625,7.625-15.25s6.375-3,9.875-3.5s27.375,0.25,32.875,0.125s12.25-0.875,12.25-0.875l5.25,7.375
			c0,0-3.375,5-3.625,7.5s1,4.25,1,4.25l-3.875,11.25C154.791,285.88,111.916,286.13,110.791,286.255z M138.541,298.131
			c-0.875-3.375-1.875-8.5-0.875-9.25s2,1.5,3,5.125s4.375,10.625,4.375,10.625l-3.625,5.25
			C141.416,309.881,139.416,301.506,138.541,298.131z M142.666,311.381c0.5-0.875,8.375-13.875,8.375-13.875s1,1.625,1.25,2.125
			s0.125,2.125,0.125,2.125s-4,4-5,6.625s-4.5,8.25-4.5,8.25S142.166,312.256,142.666,311.381z M181.541,364.256
			c0,0-9.375,1.5-11.75,1.25s-2.875,0-3.875-2.75s-6-10.25-6.875-12.5s-15.375-30.875-15.375-30.875s0.5-1.5,1.625-2.75
			s8.625-11.5,8.625-11.5s1.25-0.5,3-0.5s14.25-0.875,17-0.75s6.75-0.625,6.75-0.625s12.625,7.25,14.625,8.25s4.125,2.375,4.625,3.5
			s1.75,5.375,3,6.875s2.375,2.625,2.375,2.625l16.875,38.5C222.166,363.006,184.791,363.881,181.541,364.256z M177.916,473.756
			c0.375-1,7.625-24.875,8.125-26.375s2.125-6,3.625-6.375s2.375-0.25,3.375-0.875s1.75-1.125,3.375-1s13.625,0.25,17.375,0.375
			s7.25,1.875,9.625,1.625c0,0-2.375,8.875-3.25,11.5s-7.125,22.25-7.125,23s-0.25,1.625-0.25,1.625s-32.125-0.75-32.625-0.75
			S177.541,474.756,177.916,473.756z M92.041,484.381c1.375,0.125,2.375-1.375,2.375-1.375l39.5-0.625c0,0-2.5,1.75-3.875,2.625
			s-3,2.625-3,2.625l-36.75-0.75C90.291,486.881,90.814,484.27,92.041,484.381z M86.541,489.506c1.75-1.25,4.125-1.25,5.375-1.25
			s28.75,0.25,28.75,0.25s3,0.25,2.875,2.375s-1.5,3.75-2.25,3.875s-4.875-0.125-6.625-0.25s-28.125-1-28.125-1
			S84.791,490.756,86.541,489.506z M80.916,496.881c1.125-1.75,3.75-2,7.25-2s27.875,0.75,27.875,0.75s3.25,0.75,2.875,2.75
			s-1.625,4.375-2.875,4.375s-5-1.25-6.625-1.125s-27.875-0.125-27.875-0.125S79.791,498.631,80.916,496.881z M73.666,505.631
			c1.25-2,2.75-2.875,6.25-2.75s29.75,0.375,29.75,0.375s5.5,0.625,4.125,3.875s-3.75,4.875-3.75,4.875l-34.625-0.75
			C75.416,511.256,72.416,507.631,73.666,505.631z M67.791,514.506c1.375-2.625,4.5-2.125,5.125-2.125s31.5,0.75,31.5,0.75
			s4.5-0.25,3.75,2.625s-2.375,6.5-2.375,6.5l-36.75-1.25C69.041,521.006,66.416,517.131,67.791,514.506z M58.291,528.006
			c1.125-3.625,3.75-5,5.625-5.25s18.125,0.125,20.5,0.25s14.25,0.25,14.25,0.25s5.5,0.625,4,5s-2.875,6.875-2.875,6.875
			s-14.625,0-17,0s-23.125,0-23.125,0S57.166,531.631,58.291,528.006z M50.041,541.381c1.125-4.125,5.375-4.875,9-4.875
			s17.5,0,20.75,0s10.75-0.125,10.75-0.125s5-0.375,5.625,3.125s-0.5,5.375-1.5,7.5s-2.25,4-2.25,4s-5.75-0.5-8.375-0.625
			s-23.75-1.125-28.75-0.75C55.291,549.631,48.916,545.506,50.041,541.381z M43.416,556.881c1.25-4.5,3.875-5.625,6.25-5.625
			s13-0.25,18.5-0.25s16.125,0.625,19.5,1.625s2.75,2.5,2,4.125s-4.375,8-4.375,8s-16.625-0.5-19.25-0.5s-19.5-0.375-19.5-0.375
			S42.166,561.381,43.416,556.881z M24.041,591.131c2-2.625,6.875-2.25,12-2.375s27.375-0.5,28.5-0.5s5.75-0.125,6.125,1.75
			s-1.75,7.875-1.75,8.625s-1.75,2.875-1.75,2.875s-4.375-0.625-7.375-0.625s-30,0.375-32.75,0.5
			C27.041,601.381,22.041,593.756,24.041,591.131z M27.416,613.381c0,0-5.125-4.375-5.875-7.125s1.25-2.75,1.25-2.75
			s29.5-0.875,35.375-1.125s7.125,1.5,9,3.5s3.875,7.875,3.875,7.875L27.416,613.381z M76.166,581.506
			c-0.625,2.125-2.375,5.25-2.375,5.25s-30.333-0.082-34.458,0.168s-9.333,0-9.333,0s-1.584-3.418-0.584-5.043s2.625-2.5,4.5-2.375
			s40.625-0.125,40.625-0.125S76.791,579.381,76.166,581.506z M81.041,573.006c-1.125,1.875-3.125,5.25-3.125,5.25l-40.5-0.375
			c0,0-2.5-4.75-1.125-7.625s3-4.625,6-4.625s27.25,0,31.5,0s9,0.25,9.125,2.25S82.166,571.131,81.041,573.006z M89.999,604.756
			c0,0-2.167-5-0.667-8.668c1.5-3.666,3.166-4.666,2.5-5.332c-0.666-0.668-3.833-0.834-5.333-0.834s-2.833-1.666-1.5-2.166
			s5.833-0.834,8.833-0.834s3.667-0.834,3.167,0.5c0,0-3.834,6.332-4.167,9.5c-0.333,3.166,1.334,7.666,1.334,7.666L89.999,604.756z
			 M98.499,604.088c-5.167,0.834-3.534-8.697-3.333-9.332c1-3.166,4-7.5,6-7.668c2-0.166,2.832,4.334,3,7.834
			C104.332,598.422,103.666,603.256,98.499,604.088z M102.832,576.256c-0.238-11.166,6.667-18.168,6.667-18.168h-7.333v-3.166
			l11.166,0.166l-0.333,2c0,0-4.841,6.193-6,12.334c-1.667,8.834,2.667,16.666,2.667,16.666S102.999,584.088,102.832,576.256z
			 M120.499,571.256c-0.5,3.5-3.5,15.166-7.667,14.5c-4.166-0.668-4.184-12.645-3.833-15.334c0.5-3.834,4.667-14.334,8.667-14
			C121.666,556.754,120.999,567.756,120.499,571.256z M126.666,573.09c-1-2.5-2.166-5.834-2.166-5.834l-1.334-0.334
			c0,0-0.167-4-0.334-5.5c-0.166-1.5-2.333-4.832-2.5-6.166c-0.166-1.334-2.879-18.182,2-31.5c2.863-7.812,7.049-15.945,11.334-22
			c4.947-6.988,9.833-11.334,9.833-11.334h12.334c0,0-2.667,3.834-7,9.668c-5.763,7.756-12.925,18.01-15.167,31.166
			c-5,29.334,4.166,45.666,4.166,45.666S127.666,575.59,126.666,573.09z M137,543.422c2.833-20.5,4.332-24,6.999-28.332
			c2.667-4.334,4.5-6,4.5-6l0.5-4.168c0,0,6-7.832,8.5-10.166c2.5-2.332,6.333-5.334,7.5-7.166c1.167-1.834,2.501-3.832,4.334-5.166
			s5-3.334,5-3.334s37.333-0.5,39.333-0.334c2,0.168,5.166,1,4.333,1.834c0,0-4.5,4.5-6,8s-2.5,6-2.5,6s-15.167,7.834-21.5,25.666
			c-6.333,17.834-6.666,33.834-6.666,33.834s-10.999-2.168-15.833,3c-4.834,5.166-2.668,5.498-3.834,7.332s-3.667,6-3.5,8.668
			c0.167,2.666,0,4.832,0,4.832l-14.833-0.166C143.333,577.756,134.166,563.922,137,543.422z M164.166,580.422
			c0,0,0.001,1.834-0.666,1.334s-3.666-5-1.5-13s1.999-8,3.666-9s3.5-1,5-2s2.166-1.334,4-1.334s5.5-0.166,5.667,1
			c0.167,1.168-1.001,1.168-1.167,2.168s0.166,2.332-1,2.5c-1.166,0.166-9.666-1.334-11.666,1.666S162.832,574.756,164.166,580.422z
			 M167.583,598.09c1.25-2.252,4.083-2.502,5.916-2.418c1.335,0.062,12.667,1,16.167,1.168c3.5,0.166,17.417,1.416,21.25,1.5
			c3.833,0.082,7.5,0.582,8.25,1.582s1.666,4.5,0.833,6.168c-0.833,1.666-1.083,2-1.083,2s-16.667-0.502-19.75-0.668
			s-18.333-1.5-20.417-1.666c-1.249-0.1-11.166-0.666-11.166-0.666S166.494,600.051,167.583,598.09z M218.833,597.506
			c0,0-22.918-2.084-26.334-2.084s-20.166-1.334-20.166-1.334s-0.795-5.143,0.166-6.916c1.083-2,2.667-2.416,5.584-2.166
			c2.248,0.191,16,1.166,19,1.416s12.083,0.918,16.083,1.25c4,0.334,9.833,0.584,10.333,1.75s0.418,4.75-0.666,5.584
			C221.749,595.838,218.833,597.506,218.833,597.506z M222.999,587.088c0,0-21.578-1.729-25.583-2c-4.917-0.332-21-1.666-21-1.666
			s-0.501-5.75,0.916-7.666c1.417-1.918,2.084-2,6.667-1.75s16.166,0.916,19.333,1.166s15.083,1.25,17.917,1.5
			s5.916,1.25,6.083,3.25s0.501,3.584-1.166,4.75S222.999,587.088,222.999,587.088z M233.082,550.756
			c-1.084-0.084-17.499-0.75-18.416-0.834s-10.667-0.416-12.667-0.5c-2-0.082-7-0.334-8.083-0.666
			c-1.083-0.334-1.75-1.584-2.334-4.668s0.341-4.391,0.501-4.582c0.833-1,2.084-2.113,3.166-2.168c1.667-0.082,10.25,0.334,12,0.418
			c1.75,0.082,17.334,1.25,22.167,1.666c4.833,0.418,7.25,1.166,8.25,2.5s1,2.666,0.083,5.334
			C236.832,549.922,234.166,550.838,233.082,550.756z M236.332,557.172c-0.5,2.166-3.167,6.416-5.25,6.916s-20.5-1.25-26.333-1.416
			c-5.833-0.168-19.5-0.834-19.5-0.834s-0.666-5.084,0.667-7.416c1.333-2.334,3.25-4.082,4-4.166s5.417,0.084,6.833,0.25
			s26.666,1.416,29.333,1.5c2.667,0.082,9.25,0.332,9.25,0.332S236.832,555.004,236.332,557.172z M184.833,546.756
			c-0.834,1.168-0.641-2.039-0.167-4.5c0.834-4.334,3.333-10,5.5-16.334c2.167-6.332,11.5-21.332,11.5-21.332
			c1-0.834,2.519-2.801,2.834-2.168c0.333,0.668-3.834,9.334-5.334,12.5S185.667,545.59,184.833,546.756z M188.416,563.588
			c3.083,0.25,17.749,0.834,23.666,1.084s15.918,0.75,17.084,2.084c1.166,1.332,2.75,4.166,1.25,6c-1.5,1.832-2.5,2.582-4.167,2.832
			c-1.411,0.213-18.936-1.246-21.583-1.582c-5.25-0.668-23.834-1.668-23.834-1.668s-0.249-5,0.834-7
			S185.333,563.338,188.416,563.588z M229.166,581.59c0.31-3.1-1-4.334-1-4.334s3.833-2.666,4.166-5.666
			c0.344-3.096-1.166-4.834-1.166-4.834s5.833-4,6.666-8.834c0.511-2.961-1-6.332-1-6.332s1.387-1.365,1.834-2.334
			c1-2.166,1.5-4.5,1.5-4.5l10.666,17.166c0,0-11,17.668-11.333,18.834c-0.333,1.168-2.167,2.5-3.833,2.834
			c-1.666,0.332-9.667,6-9.667,6l-1.5-0.834l-0.167-1C224.332,587.756,228.666,586.59,229.166,581.59z M242.166,537.672
			c-1.083,1.666-9.333,0.416-10.917,0.416s-21.5-1.416-22.75-1.5c-1.25-0.082-11.166-0.5-11.416-0.666
			c-0.25-0.168-0.615-1.184-1.25-2.834c-0.417-1.082-0.084-3.332-0.084-3.332c1.5-3.25,4.428-2.861,5.917-2.668
			c1.916,0.25,15.417,0.918,18.5,1c3.083,0.084,17.25,0.834,17.833,0.918s4.084,1.75,4.834,3.082
			C243.583,533.422,243.249,536.006,242.166,537.672z M238.416,527.338c0,0-31.167-1.166-34.417-1.832
			c-1.064-0.219-3.666-0.168-3.333-3.084s1.5-5.584,3.667-6c2.167-0.418,10.917,0,15.75,0.334c4.833,0.332,23.75,1.25,23.75,1.25
			s4.416,0.082,4.416,3.332s-1.749,5.75-3.666,6.084S238.416,527.338,238.416,527.338z M223.249,515.338
			c-4.666-0.082-18.166-0.666-18.166-0.666s-0.417-4.582,1.583-7.666s4.083-3.834,6.75-3.834s12.249,1.084,17.583,1.334
			s18.668,0.75,20.084,1.332c1.416,0.584,3.75,4.002,2.75,5.918s-4.084,5.25-4.084,5.25S227.915,515.422,223.249,515.338z
			 M251.333,503.922c-0.833,0.084-31.917-1.584-33.667-1.666c-1.75-0.084-4.833,0.082-5.75-2.25c-0.917-2.334,2.167-5.5,2.167-5.5
			c1.334-1.334,2.75-2.584,4.166-2.918s11.25,0.334,15.667,0.418c4.417,0.082,23,1.5,26,2.5c3.106,1.035,1.25,3.416-0.333,5.75
			C258,502.588,252.166,503.838,251.333,503.922z M254.416,491.838c-3.583-0.334-15.083-0.916-18.833-1.082
			c-3.75-0.168-14.417-0.252-16.667-0.918s0.104-5.213,0.25-5.416c1.25-1.75,3.167-1.334,4.083-1.416
			c0.916-0.084,12.834,0.75,16.834,0.75s22.833,0.166,25.916,1.082s1.75,4.668,0.084,6.418S257.999,492.172,254.416,491.838z
			 M164.166,594.088c-0.334,1.168,0.5,2.5,0.5,2.5s-7.334-2.166-8,2.168c-0.666,4.332,1,8.5,0.666,9c-0.667,0.998-5-5-2.833-11.168
			c2.474-7.041,11-4.332,11-4.332S164.5,592.922,164.166,594.088z M168.333,614.59c0,0-2.666-3.166-2.333-4.834
			c0,0-0.833-3.084,2.333-2.916c3.166,0.166,17.166,1.25,22.166,1.5s15.168,1.166,18.834,1c3.666-0.168,8.5,1.082,9.75,2
			c1.25,0.916,2.25,3.25,2.25,3.25H168.333z M223.332,614.756c-0.167-2.5-2.833-5-2.833-5s1.333-1.832,1.667-3.332
			s0.333-2.334-0.167-4.5s-1.167-2.668-1.167-2.668s1.652-1.924,2.834-2.834c1.083-0.832,1.833-2.574,1.833-3.25
			c4.969-1.963,14.667-9.748,14.667-9.748l3,0.5l12.166-22c0,0,5.667,9.332,6.667,11.166c1,1.832,1.333,3.166,0.667,5.166
			s-7.167,17.5-7.834,19.168c-0.667,1.666-0.333,4.666,0.334,4.832c0.667,0.168,24.5,1.5,24.5,1.5l6.5,11H223.332z M287.833,614.424
			l-5.167-9.168l11.833-6.332l8,15.5H287.833z M316.5,595.09c1,3.666,1.5,7.5,0.334,11.5s-7.334,7.666-7.334,7.666h-4.667l-8.667-16
			l17.168-10.832C313.334,587.424,315.5,591.424,316.5,595.09z M299.833,548.256c0,0-6.833,4.834-7.667,4.834s-1.5-0.668-1.5-0.668
			S276,518.756,275.833,518.09c-0.167-0.668,0.833-1.5,0.833-1.5l11.167-5.668L299.833,548.256z M277.499,484.59
			c0,0,10.667,24.666,10.167,24.666s-11.5,5-12.667,5.834c-1.167,0.832-0.666,4-0.666,4s14.333,34,15.166,35.334
			s3.167,0.332,3.167,0.332l7.833-4.332c0,0,12.333,32.666,12.501,33.832c0.166,1.168-1,1.666-1,1.666s-1.334,1-2.334,1.668
			c-1,0.666-26.5,15.832-27.334,15.832s-1.833-1.332-1.833-1.332l-36.167-65.168c1.666-4-0.666-6.5-0.666-7.332
			c2-0.668,4.667-2.168,5.333-3.5c1.489-2.982,0.833-5.334,0.5-6.334s2.333-2.5,3.333-3.666c1.415-1.65,3.167-4.5,2.667-6.334
			c-0.482-1.768-0.997-3.518-0.833-4.334c0.167-0.832,3.666-2,6.5-4.666c3.67-3.451,2-6,2-6s4.166-2.166,5.5-3.666
			s0.5-5.168,0.5-5.168s1-1.166,1.666-1.166s1.5-1.834,3.334-2.166C276,482.256,277.499,484.59,277.499,484.59z M241.285,477.842
			c7.086-0.107,32.425-0.43,33.82-0.215s0,2.256-0.645,2.898c-0.645,0.645-2.684,2.041-3.221,1.934s-6.228,0-8.481,0
			s-34.786-0.752-36.289-0.752s-5.798-0.215-5.69-0.967s2.791-2.576,2.791-2.576C225.073,477.736,234.199,477.949,241.285,477.842z
			 M232.041,442.131c-1.375,0.875-2.625,7.125-3.625,10.875s-2.75,12.375-3.375,14.875s-3.5,9.75-4.375,10s-3,0-4-0.125
			s-2.125-0.125-2-1.5s8.75-25.75,9.75-29.75s2.125-6.375,0.75-10.625s-11.125-8.625-19.75-9.75s-17.375,4.125-17.375,4.125
			s1.875-5.5,4.625-12.875s11.625-29.875,11.625-29.875c2.375-4.25,5.875-5.25,13.75-5.25c10.125,0,16,2.75,20.375,5.875
			c5.098,3.641,7.5,8.125,7.5,8.125l0.25,2.25c0,0-1.75,0.25-3.75,0.125s-3.375,0.5-3.375,0.5s-7,19.75-7.125,20.75
			s1.75,3.375,3,3.75s4,0.75,4,0.75l-0.125,1c0,0-0.75,0-2,0s-2.625-0.875-3.5-0.625s-2.875,4.625-3.5,6.375s-0.625,4.25-0.375,5.5
			s4.75,4,4.75,4S233.416,441.256,232.041,442.131z M241.416,429.256c1.375,1.375-2.25,7.5-2.625,7.875s-0.625,0.5-1.625-0.375
			s-3-1.75-3-2.25s2.75-7,2.75-7C238.416,426.881,240.041,427.881,241.416,429.256z M249.416,405.756
			c-0.375,1.75-3.75,11.375-4.5,13.375s-2,3.5-3.875,3.25s-1.5-2.5-1.25-3.875s6-16.875,6-16.875c0.375-1,1.125-0.5,2.5,0.375
			S249.791,404.006,249.416,405.756z M241.582,348.756c1.25,0.418,1.334,1.334,1.167,2.418s0.5,2.25,1.25,2.666
			s1.25,0.584,1.333,1.416c0.083,0.834,0.25,1.918,0.167,2.584s-0.083,1.25,0.417,1.834s1.833,0.332,2.166,1.416
			c0.333,1.082-0.416,2.416-1.083,3c-0.667,0.582-0.5,1.584-0.333,1.834s1.666,1.75,2.25,2.832c0.584,1.084-0.417,3.5-1.083,4.084
			c-0.666,0.582-0.75,1.416-0.584,2.166s1.584,1.666,1.75,3s-0.958,1.875-0.958,1.875c-0.375,1.125-0.875,2.5-0.125,3.125
			s3,3,3.375,4.75s-1.625,6.375-2.375,7.5s-1.25,0.125-1.75-0.5s-3.246-5.389-5.375-7.25c-3-2.625-8-4.125-9-5.25
			c-0.415-0.467,0.75-1.25,1.875-1.625s1.375-1.625,1.375-1.625s-0.53-1.086,0.095-1.711s1.53-0.289,1.655-1.664
			s1.25-1.875,1.25-1.875s0,0-0.125-1.125s0.5-0.875,0.5-0.875s-0.75-2-0.625-2.875s0.5-0.5,0-1.75
			c-0.364-0.912-0.264-1.023-0.183-1.02c-0.272-0.088-1.631-0.545-2.192-1.105c-0.625-0.625,0-1.375,0-2.125s-0.125-1-1.125-1.625
			s-0.75-2.875-0.875-3.75s0-1.625,0-1.625s-1.125,0-1.875-0.875s0.875-3.375,1.625-4.375s2.25-4.125,2.5-5.125s1.125-0.75,1.25,0
			s0.875,2.375,0.875,2.375C239.916,349.004,240.332,348.34,241.582,348.756z M250.291,339.006c-4,0.125-6.75,0.5-9.125,0.625
			s-5.125-2-5.125-2s11.5-0.125,12.875-0.375s1.125-3.625-0.5-5.75s-2.25-7.125-3-12.75s2.25-9.25,2.25-9.25l-18.875-0.25
			c1.125-1.75,3.25-4.125,4.875-4.625s20.375-0.75,20.375-0.75s-4,11.75-3.625,18.25s5.5,14.875,6.375,15.875
			S254.291,338.881,250.291,339.006z M262.791,335.131c-0.75,1.375-1.5,3.625-4,2.5s-5.5-11.75-5.5-11.75
			c-0.125-2,3.613,3.971,5.5,5.125c2.25,1.375,5.25,0.375,5.25,0.375S263.541,333.756,262.791,335.131z M262.916,324.631
			c-2.375,0-3.625-3.75-3.625-3.75c-0.125-1.625,0-3.125,0.625-4.25s2.625,0.125,2.625,0.875s2.25,4,2.625,5
			S265.291,324.631,262.916,324.631z M278.291,326.506c-1.75,0.125-6.875-0.25-6.875-0.25s-2.75-1-3.875-3.25
			s-14.625-31-15.125-32.125s0.25-2,1.625-1.625s3.25,3,5.375,3.125s8.625,0,8.625,0s7,17.5,8,20.75s3.5,9.75,3.5,9.75
			S280.041,326.381,278.291,326.506z M288.291,308.006c0.5,1.625,0.125,2.875-0.5,3.625s-4.625,9.625-5.625,10.125
			s-3.25-6.25-4.25-9.375s-7.625-20.625-7.625-20.625s6-3.5,7.75-3.5s2.5,0,3.625,3S288.291,308.006,288.291,308.006z
			 M305.791,254.38c1.125,0,3.334,1.706,4.125,6c0.875,4.75-1.375,8.75-2.875,8.375c-1.5-0.375-3.375-3.125-3.625-8.125
			S304.666,254.38,305.791,254.38z M290.416,261.505c-0.25-2.25,1.125-4.75,1.125-4.75l8.625-1c0,0,0.25,1.75,0.375,5.25
			s5.125,9.375,5.125,9.375s-12,7.125-15.125,8.875s-10,5-11.125,4.625s-1.75-2-2.375-4.375s1.25-4.375,1.25-4.375l12.25-10
			C290.541,265.13,290.666,263.755,290.416,261.505z M309.791,197.38c-1.125,1.375-11,17.125-12.25,18.875s-12.625,23.25-14.5,27
			s-4.875,10.625-4.875,10.625s-8,1.125-11.5-1.625c-1.5-1.179-1.25-3-0.25-4.875s16.625-32.125,16.625-32.125l-4.75-4.625
			c0,0,12.25-17.25,13.75-19.875s2-5.5,2-5.5c1.75-0.625,1.56,2.602,8.25,5c6.625,2.375,10.375,1.125,11,1.75
			S310.916,196.005,309.791,197.38z M317.416,182.255c-0.625-0.125-2.625-5.75-6-5.625s-6.75,6.5-7.125,7.125s-0.875,3.25-2,2.875
			s-0.125-2.875-0.125-2.875c1.125-4,6.75-12,11.75-11.5C318.277,172.691,318.041,182.38,317.416,182.255z M309.416,136.88
			c1.475,6.631,4.5,32.875,4.5,32.875s-3.5-0.375-6.375,2c-2.155,1.78-7.125,7.5-7.125,7.5s-1.5-41.375-1.625-46.75
			s-1.125-13.5-1.125-13.5l6.75-3C304.416,116.005,307.666,129.005,309.416,136.88z M309.666,108.63
			c1.875-0.875,1.625,1.375,1.375,3s-0.625,1.75-2,1.75s-6.875,0.25-9.375,1s-6.875,4.625-7.75,4.75s-3.375-0.125-3.75-2.125
			s6-3.375,9.75-4S309.666,108.63,309.666,108.63z M314.666,76.755c-1.732,3.193-8,12.875-8.75,12.875c-0.75,0-1.875-1.375-3.5-1.5
			s-3.625,1.125-4.125,1.125s-0.375-1.5,0.875-4s10.5-19.875,10.5-19.875c2.125-3.5,5.451-2.812,6.375-0.5
			C317.041,67.38,317.041,72.38,314.666,76.755z M330.416,53.755c-0.5,0.875-8.25,7.875-8.875,8.625s-1.5,3-2.125,2.875
			s-0.25-1.5-1.25-3s-3.125-1.75-3.125-1.75s3.875-3,5.75-4.375s7.875-7.375,7.875-7.375c1.125-0.5,1.75,1.25,1.875,2.125
			S330.916,52.88,330.416,53.755z M331.541,35.13c-0.75,0.25-2.125,0.125-3.625-0.75s-0.875-5.5-0.875-5.5
			c1.625-3.5,4.25-5.375,6.125-4.125c1.416,0.943,1.375,3.5,1.125,4.625S332.291,34.88,331.541,35.13z M337.791,47.63
			c-0.125,2.5-0.375,4.25-2.75,4.75s-2.625-2.625-2.5-4.875s3.5-3.125,3.5-3.125C337.416,44.255,337.91,45.245,337.791,47.63z
			 M337.416,38.63c-1,1.375-4.875,5.375-5.375,4.75s0.375-2.5,1-4.125s2.375-7.625,2.375-7.625c1.25-0.875,1.875,0.125,2.875,1.5
			S338.416,37.255,337.416,38.63z M343.416,27.755c-0.625,1.125-3.125,3.875-3.125,3.875s-2.25-0.5-2.625-3.5
			s2.625-4.875,2.625-4.875c1.75-0.375,3,0.25,3.5,0.625S344.041,26.63,343.416,27.755z"/>
		<path fill="#060808" d="M121.041,163.005c4,1.5,9.375,1.375,11.875,0.5s6.5-5,6.375-9.25c-0.15-5.125-2.084-10.671-6.625-12
			c-5.125-1.5-7.75-1.125-11.625,1.625c-1.084,0.769-3.875,4.875-4.25,8.875S116.812,161.419,121.041,163.005z M123.416,145.505
			c1.125-0.625,2.375-1.25,4.375-0.5s2,3.75,1.375,4.75c-0.357,0.571-1.5,0.375-2.125-0.375s-1.875-1.75-1.875-1.75
			s0,3.25-0.25,3.75s-2.375,0.875-3.375-1.25S122.291,146.13,123.416,145.505z"/>
		<path fill="#060808" d="M184.666,161.755c4.375-1.25,8.629-5.841,7.75-13.125c-0.875-7.25-6.125-8.875-10-8.75
			s-6.25,2.375-7.125,3c0,0-5,3.75-3.625,11S180.291,163.005,184.666,161.755z M177.666,143.63c1.125-0.875,2.5-2,4.125-1.875
			s2.375,4,0.5,5.25c-0.812,0.542-3.875-0.625-3.875-0.625s0.125,1.5,0.25,2.25c0.189,1.137-1.75,1.875-3,0.125
			S176.541,144.505,177.666,143.63z"/>
		<path fill="#060808" d="M145.441,168.623c0,0,2.916,0.129,5.25,0.129s19.899-0.129,20.418-0.129s0.647-1.361,0-1.491
			s-24.048-0.195-24.048-0.195L145.441,168.623z"/>
		<path fill="#060808" d="M36.041,145.63c-0.25-3.25-1.25-6.875-2.75-6.25s-1,6.375-0.875,8.875c0,0,1.75,8.5,3.5,8.25
			S36.291,148.88,36.041,145.63z"/>
		<path fill="#060808" d="M19.332,80.089c0,0-0.499,1.5-0.332,2.667c0.166,1.167,1.499,2,1.832,1.083
			c0.334-0.917,0.334-2.667-0.082-3.167C20.332,80.172,19.999,79.339,19.332,80.089z"/>
		<path fill="#060808" d="M33.166,135.13c0.875,0,0.75-4.25,0.125-7s-1.25-5-1.875-5s-1.125,4.125-0.5,6.875
			C31.609,133.055,32.291,135.13,33.166,135.13z"/>
		<path fill="#060808" d="M36.541,161.88c-0.875-0.125-1.25,4.75-0.625,8.625s1.625,5.875,2.375,5.875s1.875-3.5,1-7.875
			S37.051,161.953,36.541,161.88z"/>
		<path fill="#060808" d="M38.25,78.839c0,0-0.168,3.583,0.666,3.083s1.167-1.416,1.084-2.333c-0.084-0.917-0.5-1-1-1.083
			S38.25,78.339,38.25,78.839z"/>
		<path fill="#060808" d="M23.583,86.755c-1.5-0.833-1.167-1.167-2-0.667c0,0-1.083,1.417,0,2.417s3.167,2.583,3.417,2
			S25.083,87.588,23.583,86.755z"/>
		<path fill="#060808" d="M39,76.589c0.5-0.417-0.084-1.917-0.668-2.417c-0.582-0.5-0.25-0.417-0.916-0.417
			c0,0-0.5,1.083-0.25,1.583S38.5,77.006,39,76.589z"/>
		<polygon fill="#060808" points="147.111,173.44 147.338,174.575 152.333,174.575 152.22,173.213 		"/>
		<polygon fill="#060808" points="153.809,174.234 157.44,174.461 157.44,173.213 153.581,173.1 		"/>
		<polygon fill="#060808" points="163.684,172.759 159.598,173.1 159.598,174.348 163.798,174.121 		"/>
		<polygon fill="#060808" points="169.02,173.894 168.905,172.418 164.933,172.759 165.273,174.007 		"/>
		<path fill="#060808" d="M206.166,387.09l-11.167,30.166c0,0,3.166,3.5,3.5,4s9.5,0.166,9.5,0.166l10.667-31l-3.5-4.832
			L206.166,387.09z M203.166,415.756l-6.667,0.834l10.167-27.834l7.5-1.166L203.166,415.756z"/>
	</g>
	<path fill="none" stroke="#000000" stroke-width="1.2" stroke-miterlimit="10" d="M171.416,310.006c0,0,4.125,10.375,5.875,15.875
		s8.75,23.5,9.625,25.5s2,5.75,3.125,5.875s10.25-1,12.875-0.875s7.5,0.125,7.5,0.125s-0.625-3.625-0.625-5.125s-5.625-14.75-6-16
		s-5.625-15.75-5.625-15.75l-9,0.25l-3.5-9.125c0,0-0.875-1.75-2.25-1.875s-9.75,0.375-10.75,0.5S171.291,308.756,171.416,310.006z"
		/>
	<path fill="none" stroke="#000000" stroke-width="1.2" stroke-miterlimit="10" d="M151.416,316.256c0,0-0.25,1,0.625,3.875
		s5.875,12.75,7.375,18.5s3.125,7.875,4.5,7.875s2.625-0.25,3.375-0.375s7.75-0.5,8.125-0.875s0.25-2.75-0.25-4.875
		s-6.75-20.625-7.375-22.25s-1.25-2.75-4.25-2.5s-7.25,0.375-8.125,0.5S152.791,316.256,151.416,316.256z"/>
	<path fill="none" stroke="#000000" stroke-width="1.2" stroke-miterlimit="10" d="M155.416,316.131c0,0,3.125,8.875,3.875,11
		s1,4.875,1.875,5.125s3.25-1.75,3.75-2.375s3-2.75,3.375-1.375s1.625,4.75,0.875,5.25s-0.625,2-0.375,3.875s1.125,4.25,0,4.375
		s-4.75,0-5.375,1s-0.25,3.375-0.25,3.375"/>
	<path fill="none" stroke="#000000" stroke-width="1.2" stroke-miterlimit="10" d="M167.291,346.131c0,0,0.875-3.375-0.5-3.75"/>
	<path fill="none" stroke="#000000" stroke-width="1.2" stroke-miterlimit="10" d="M164.916,329.881c0,0,0.375,4.25,0.875,4.5
		s2.25,0.5,2.75,0.25"/>
	<path fill="none" stroke="#000000" stroke-width="1.2" stroke-miterlimit="10" d="M180.352,324.637c0,0,1.005,3.391,1.507,3.516
		s3.516-1.131,4.771-1.381c1.256-0.252,2.136-0.628,1.759-1.758c-0.377-1.131-1.508-2.387-2.261-2.387
		S181.105,324.26,180.352,324.637z"/>
	<path fill="none" stroke="#000000" stroke-width="1.2" stroke-miterlimit="10" d="M179.849,313.836c0,0-2.763,1.759-1.13,4.02
		c1.633,2.26,4.646,1.004,5.148,0.125s0.377-3.266-1.13-4.019S181.104,313.334,179.849,313.836z"/>
	<path fill="none" stroke="#000000" stroke-width="1.2" stroke-miterlimit="10" d="M183.616,323.255c0,0-0.754-3.265-1.005-4.144"/>
	<path fill="none" stroke="#000000" stroke-width="1.2" stroke-miterlimit="10" d="M188.64,341.84c0,0-1.005,0.252-0.628,1.508
		s2.261,4.521,2.763,7.158s1.508,2.135,2.638,2.135s5.022,0.377,5.148-0.754c0.126-1.129-1.884-7.283-2.512-9.041
		s-2.261-4.773-2.889-4.646c-0.628,0.125-1.131,1.883-1.256,2.889C191.779,342.092,189.268,341.715,188.64,341.84z"/>
	<path fill="none" stroke="#000000" stroke-width="1.2" stroke-miterlimit="10" d="M193.788,327.273
		c0.161,0.363,4.771,12.307,5.902,16.953s1.508,7.41,2.387,7.787c0.879,0.375,2.763-0.504,3.014-1.131
		c0.251-0.629-3.768-13.438-5.274-17.455c-1.507-4.02-2.01-6.908-2.512-7.535c-0.502-0.629-1.382-2.01-3.14-1.382
		S193.285,326.143,193.788,327.273z"/>
	<path fill="none" stroke="#000000" stroke-width="1.2" stroke-miterlimit="10" d="M184.621,327.525c0,0,1.004,5.902,1.758,5.902
		s7.66-2.764,8.414-3.266"/>
	
		<line fill="none" stroke="#000000" stroke-width="1.2" stroke-miterlimit="10" x1="192.156" y1="339.455" x2="189.896" y2="332.422"/>
	<path fill="none" stroke="#000000" stroke-width="1.2" stroke-miterlimit="10" d="M164.653,352.264c0,0,2.011,4.52,2.387,6.027
		s0.501,4.396,1.004,4.521s8.163-0.377,9.419-0.377s3.516-0.502,3.642-1.381s-2.762-9.041-2.888-9.67
		c-0.126-0.627-6.154,0.879-7.284,1.004C169.803,352.516,166.285,351.637,164.653,352.264z"/>
	<path fill="none" stroke="#000000" stroke-width="1.2" stroke-miterlimit="10" d="M181.355,354.398c0,0-5.649,1.256-6.529,1.381
		c-0.88,0.127-1.381,0.252-1.884,0.881c-0.503,0.627-5.275,0.627-6.154,0.627"/>
	<path fill="none" stroke="#000000" stroke-width="1.2" stroke-miterlimit="10" d="M171.687,352.389c0,0,0.503,2.01,1.256,3.391
		c0.753,1.383,1.256,2.387,1.507,3.895c0.251,1.506,0.251,2.762,0.251,2.762"/>
	<path fill="none" stroke="#000000" stroke-width="1.2" stroke-miterlimit="10" d="M239.715,347.426c0,0-0.332,4.434-5.764,9.311"/>
	<path fill="none" stroke="#000000" stroke-width="1.2" stroke-miterlimit="10" d="M235.835,362.391c0,0,7.648-7.316,8.425-9.865"/>
	<path fill="none" stroke="#000000" stroke-width="1.2" stroke-miterlimit="10" d="M246.478,358.621c0,0-5.764,6.541-8.646,7.982
		s0.443,1.551,0.443,1.551s3.325,0.334,5.875-1.107s3.547-2.217,3.547-2.217"/>
	<path fill="none" stroke="#000000" stroke-miterlimit="10" d="M245.923,369.152c0,0-4.655,2.551-8.092,2.771
		c-1.455,0.094,0.553,1.885,1.884,2.105c1.331,0.223,7.205,0.555,7.981,0.666"/>
	<path fill="none" stroke="#000000" stroke-miterlimit="10" d="M233.508,377.688c0,0,4.767,3.326,8.425,2.662
		c3.658-0.666,6.429,1.219,6.429,1.219"/>
	<path fill="none" stroke="#000000" stroke-miterlimit="10" d="M236.39,385.67c0,0,3.325-4.877,4.434-5.432"/>
	<g>
		<path fill="none" stroke="#000000" stroke-width="1.2" stroke-miterlimit="10" d="M191.836,443.639c0,0-1.14,0.342-1.938,2.734
			c-0.798,2.395-3.077,10.484-2.963,11.396s-2.052,10.027-2.621,10.939s-1.368,3.418-0.342,3.418s6.154,0.912,7.18-0.57
			c1.025-1.48,4.785-14.014,6.039-18.004c1.254-3.988,2.963-7.562,2.963-8.773c0-1.141-1.481-1.027-3.874-1.141
			C195.25,443.59,191.836,443.639,191.836,443.639z"/>
		
			<line fill="none" stroke="#000000" stroke-width="1.2" stroke-miterlimit="10" x1="191.608" y1="469.506" x2="184.314" y2="468.709"/>
		
			<line fill="none" stroke="#000000" stroke-width="1.2" stroke-miterlimit="10" x1="192.634" y1="466.885" x2="185.227" y2="466.088"/>
		
			<line fill="none" stroke="#000000" stroke-width="1.2" stroke-miterlimit="10" x1="193.887" y1="463.922" x2="187.277" y2="464.15"/>
		
			<line fill="none" stroke="#000000" stroke-width="1.2" stroke-miterlimit="10" x1="194.229" y1="461.758" x2="188.531" y2="461.871"/>
		
			<line fill="none" stroke="#000000" stroke-width="1.2" stroke-miterlimit="10" x1="195.255" y1="459.023" x2="188.417" y2="458.908"/>
		
			<line fill="none" stroke="#000000" stroke-width="1.2" stroke-miterlimit="10" x1="196.166" y1="456.857" x2="189.101" y2="456.857"/>
		
			<line fill="none" stroke="#000000" stroke-width="1.2" stroke-miterlimit="10" x1="196.85" y1="454.92" x2="189.898" y2="453.666"/>
		
			<line fill="none" stroke="#000000" stroke-width="1.2" stroke-miterlimit="10" x1="197.647" y1="451.957" x2="191.038" y2="451.73"/>
		
			<line fill="none" stroke="#000000" stroke-width="1.2" stroke-miterlimit="10" x1="198.445" y1="449.678" x2="191.949" y2="450.02"/>
		
			<line fill="none" stroke="#000000" stroke-width="1.2" stroke-miterlimit="10" x1="198.673" y1="448.426" x2="192.405" y2="446.373"/>
		<path fill="none" stroke="#000000" stroke-width="1.2" stroke-miterlimit="10" d="M195.71,472.697c0,0,1.253-4.104,1.709-5.129
			s0.343-3.986,0.685-4.898s3.532-1.938,4.33-2.395c0.171-0.098,0.389-0.539,0.633-1.195c0.894-2.41,2.135-7.699,2.672-9.402
			c0.684-2.164,2.393-5.469,1.709-6.039s-4.216-0.229-4.216-0.229s-0.228,1.48-0.456,2.508c-0.229,1.025-2.051,6.951-2.507,8.889
			c-0.397,1.689-0.797,3.875,0,4.102c0.797,0.229,2.329,0.057,3.19,0"/>
		<path fill="none" stroke="#000000" stroke-width="1.2" stroke-miterlimit="10" d="M212.917,443.639c0,0-0.342,2.85-1.367,5.242
			c-0.635,1.48-2.621,5.129-1.596,6.039c1.025,0.912,3.647,1.482,4.559,0.684c0.911-0.797,2.394-5.924,2.963-7.635
			c0.569-1.709,1.823-5.014-0.114-5.355S213.259,442.387,212.917,443.639z"/>
		<path fill="none" stroke="#000000" stroke-width="1.2" stroke-miterlimit="10" d="M208.473,457.312c0,0-0.684,1.025-1.367,2.053
			c-0.459,0.689-2.165,3.873-0.798,4.102s4.217-0.115,5.242,0c1.025,0.113,2.393,0.113,2.734-0.342s0.913-3.873,1.026-4.443
			s-1.824-1.141-3.191-1.254C210.752,457.312,209.271,457.312,208.473,457.312z"/>
		<path fill="none" stroke="#000000" stroke-width="1.2" stroke-miterlimit="10" d="M202.205,468.252
			c-0.911,0-2.962,0.57-3.076,2.166s1.481,2.734,3.305,2.734s2.052-1.596,2.165-2.621S203.116,468.252,202.205,468.252z"/>
		<path fill="none" stroke="#000000" stroke-width="1.2" stroke-miterlimit="10" d="M208.245,466.088l-1.367,7.18
			c0,0,2.164,0.455,2.962,0.342c0.798-0.115,1.368-3.535,1.71-4.674s0.456-2.506,0.456-2.506L208.245,466.088z"/>
	</g>
	<path fill="none" stroke="#000000" stroke-width="1.5" stroke-miterlimit="10" d="M296.748,573.082
		c-1.487,0-3.611,2.762-2.762,6.373s5.947,2.336,7.222,0.637s1.274-1.486,0.638-4.461
		C301.185,572.543,298.235,573.082,296.748,573.082z"/>
	<g>
		<path fill="none" stroke="#000000" stroke-miterlimit="10" d="M32,613.922c0,0-5.834-5.334-3-6.834
			c2.833-1.5,16.499-2.334,21.166-2s10.833,0.168,13,2.168s0.666,5.832,0.5,7.332"/>
		<path fill="none" stroke="#000000" stroke-miterlimit="10" d="M31.5,602.088c0,0-6.194-7.305-4.167-9.332
			c2-2,7.333-1.834,11.833-2c4.83-0.178,25.167-0.668,25.167-0.668s3.5,0.5,1.5,5s-3.833,6.5-3.833,6.5"/>
		<path fill="none" stroke="#000000" stroke-miterlimit="10" d="M42.166,578.422c0,0-4.667-4.5-2.334-7.5
			c2.334-3,3.834-2.834,7-2.666c3.167,0.166,27.5,0.166,27.5,0.166s4.92,0.137,4.334,2.834c-0.833,3.832-4.5,7.5-4.5,7.5"/>
		<path fill="none" stroke="#000000" stroke-miterlimit="10" d="M49.5,564.256c0,0-4.668-8.834-1.334-9.334
			s16.498-0.666,23.166-0.666c9.334,0,13.667,1.332,12,4.832c-1.666,3.5-3.5,6-3.5,6"/>
		<path fill="none" stroke="#000000" stroke-miterlimit="10" d="M58.333,549.422c0,0-5.5-3.666-4.333-7.166
			c1.166-3.5,4.666-3.168,6.666-3.168c0,0,18.334,0.334,22.334,0.668c4,0.332,10.499,0.5,9.166,4.332c-1.333,3.834-5.666,7-5.666,7"
			/>
		<path fill="none" stroke="#000000" stroke-miterlimit="10" d="M63.166,535.422c0,0-2.666-7.668-0.333-8.834s9.667-1,15.667-0.832
			c6,0.166,17.285-0.758,18.666,2.832C98,530.756,94,535.256,94,535.256"/>
		<path fill="none" stroke="#000000" stroke-miterlimit="10" d="M72,521.756c0,0-2.574-4.508-0.334-6c1.5-1,10-1,14.334-1
			c2.687,0,13.332,0.498,14.666,0.666c1.334,0.166,3.334,1.168,2.167,2.834S100,522.922,100,522.922"/>
		<path fill="none" stroke="#000000" stroke-miterlimit="10" d="M77.666,511.256c0,0-1.834-4.5,1-5.5s9.833-0.668,13.666-0.668
			c3.834,0,16.001-0.834,16.168,1.334c0.166,2.166-3.5,6.166-3.5,6.166"/>
		<path fill="none" stroke="#000000" stroke-miterlimit="10" d="M84.832,501.922c0,0-1.833-5,2.5-5c4.334,0,24,0.666,24,0.666
			s6,0.668,1.334,5.334"/>
		<path fill="none" stroke="#000000" stroke-miterlimit="10" d="M88.666,494.088c0,0-2.018-3.24,2-4.166
			c2.166-0.5,24.334,0.166,24.334,0.166s5.5,0.334,1.166,4.834"/>
		<path fill="none" stroke="#000000" stroke-miterlimit="10" d="M32.333,588.09c0,0-2-5.334,4.167-6
			c6.166-0.666,29.166-0.834,30.333-1s6.5,0.834,1.5,6.666"/>
	</g>
	<g>
		<path fill="#060808" d="M58.173,609.447c0,0,0.001,4.662,1.332,5.461s1.598-1.467,0.665-3.197
			C59.238,609.98,59.637,609.314,58.173,609.447z"/>
		<path fill="#060808" d="M35.004,609.447c-0.752-0.057-0.533,1.598,0.133,2.93s2.13,1.865,2.796,1.865s0.666-1.73,0.134-2.664
			C37.533,610.646,36.734,609.58,35.004,609.447z"/>
		<path fill="#060808" d="M31.274,594.268c0,0-1.598,1.199-0.799,2.664c0.799,1.463,2.53,2.262,2.93,1.33s0.532-2.131-0.134-2.93
			S32.738,594.4,31.274,594.268z"/>
		<path fill="#060808" d="M58.173,595.066c0,0-1.687,2.068-0.933,2.93c0.933,1.064,2.664,1.064,4.129-0.4s1.598-2.129,0.266-2.928
			C60.303,593.867,59.771,594.002,58.173,595.066z"/>
		<path fill="#060808" d="M62.301,584.016c0,0-1.686,2.066-0.932,2.928c0.932,1.066,2.662,1.066,4.127-0.398s1.598-2.129,0.267-2.93
			C64.432,582.816,63.898,582.949,62.301,584.016z"/>
		<path fill="#060808" d="M70.822,573.229c0,0-1.686,2.066-0.932,2.928c0.932,1.066,2.53,0.268,3.729-0.531
			c1.097-0.73,1.332-2.264,0.666-2.797C73.072,571.857,72.42,572.162,70.822,573.229z"/>
		<path fill="#060808" d="M75.855,559.586c0,0-1.375,2.285-0.506,3.031c1.074,0.922,2.543-0.096,3.615-1.059
			c0.98-0.879,0.995-2.43,0.26-2.863C77.886,557.908,77.284,558.303,75.855,559.586z"/>
		<path fill="#060808" d="M83.18,544.902c0,0-1.027,2.461-0.061,3.072c1.197,0.756,2.502-0.463,3.424-1.57
			c0.843-1.014,0.633-2.549-0.158-2.871C84.945,542.947,84.408,543.426,83.18,544.902z"/>
		<path fill="#060808" d="M89.305,530.654c0,0-1.027,2.461-0.061,3.072c1.197,0.756,2.503-0.463,3.424-1.57
			c0.844-1.014,0.633-2.549-0.158-2.871C91.071,528.699,90.533,529.178,89.305,530.654z"/>
		<path fill="#060808" d="M96.229,519.203c0,0-1.028,2.461-0.061,3.072c1.197,0.756,2.503-0.463,3.423-1.57
			c0.844-1.014,0.633-2.549-0.157-2.871C97.996,517.248,97.457,517.727,96.229,519.203z"/>
		<path fill="#060808" d="M100.918,508.646c0,0-0.491,1.93,0.31,2.414c0.991,0.602,2.376-0.447,3.153-1.35
			c0.711-0.824,0.263-2.006-0.394-2.26C102.793,506.992,101.954,507.445,100.918,508.646z"/>
		<path fill="#060808" d="M107.576,500.523c0,0-0.492,1.93,0.309,2.414c0.991,0.602,2.376-0.447,3.153-1.35
			c0.712-0.824,0.263-2.006-0.394-2.26C109.451,498.869,108.611,499.322,107.576,500.523z"/>
		<path fill="#060808" d="M111.038,490.936c0,0-0.491,1.932,0.31,2.416c0.99,0.6,2.375-0.449,3.152-1.35
			c0.712-0.824,0.264-2.008-0.393-2.26C112.914,489.283,112.074,489.734,111.038,490.936z"/>
		<path fill="#060808" d="M91.688,493.617c0,0,1.354,1.459,2.196,1.051c1.042-0.508,0.912-2.24,0.577-3.381
			c-0.307-1.045-1.543-1.311-2.111-0.896C91.316,491.145,91.24,492.094,91.688,493.617z"/>
		<path fill="#060808" d="M86.78,501.4c0,0,1.307,1.191,2.059,0.912c0.931-0.346,0.733-1.691,0.375-2.592
			c-0.327-0.822-1.472-1.084-1.974-0.789C86.328,499.469,86.303,500.201,86.78,501.4z"/>
		<path fill="#060808" d="M78.924,510.189c0,0,1.307,1.191,2.059,0.912c0.932-0.346,0.734-1.691,0.375-2.592
			c-0.327-0.822-1.471-1.084-1.973-0.789C78.473,508.258,78.447,508.99,78.924,510.189z"/>
		<path fill="#060808" d="M72.688,518.926c0,0,0.711,1.621,1.511,1.672c0.991,0.062,1.358-1.248,1.396-2.217
			c0.035-0.883-0.904-1.588-1.482-1.521C73.061,516.979,72.739,517.637,72.688,518.926z"/>
		<path fill="#060808" d="M64.319,531.064c0,0,0.841,1.92,1.788,1.98c1.174,0.072,2.143-1.148,2.188-2.295
			c0.041-1.047-1.604-2.211-2.289-2.133C64.761,528.758,64.381,529.539,64.319,531.064z"/>
		<path fill="#060808" d="M56.641,544.252c0,0,0.799,1.748,1.66,1.818c1.067,0.088,1.926-0.996,1.944-2.029
			c0.019-0.943-1.497-2.021-2.118-1.965C56.999,542.18,56.668,542.877,56.641,544.252z"/>
		<path fill="#060808" d="M50.176,558.049c0,0-1.021,1.627-0.607,2.387c0.514,0.939,1.891,1.061,2.764,0.51
			c0.799-0.504,0.867-2.363,0.479-2.852C52.105,557.209,51.34,557.316,50.176,558.049z"/>
		<path fill="#060808" d="M42.985,572.562c0,0-1.021,1.629-0.607,2.387c0.513,0.939,1.89,1.062,2.764,0.51
			c0.799-0.502,0.867-2.361,0.479-2.85C44.914,571.725,44.148,571.83,42.985,572.562z"/>
		<path fill="#060808" d="M33.715,583.883c0,0-0.472,1.857,0.148,2.457c0.768,0.74,2.104,0.441,2.762-0.348
			c0.602-0.721,0.105-2.514-0.409-2.861C35.283,582.5,34.592,582.834,33.715,583.883z"/>
	</g>
	<g>
		<path fill="none" stroke="#000000" stroke-miterlimit="10" d="M268.71,504.477c0.638,2.336,3.398,6.373,7.01,3.611
			s1.7-5.1,0.638-6.586s-4.249-4.035-6.373-2.973S268.072,502.139,268.71,504.477z"/>
		<path fill="none" stroke="#000000" stroke-miterlimit="10" d="M172.041,615.256c0-0.625-2-4.875,0.375-5.25
			s17.75,1.125,24.375,1.25c0,0,9.5,0.25,12.75,0s4.625,0.625,4.875,3.5"/>
		<path fill="none" stroke="#000000" stroke-miterlimit="10" d="M172.041,605.631c0,0-2.125-6.375,1.375-6.5s11,1.5,19.375,1.5
			s19.5-0.875,20.25,1.25s-2.375,6.375-2.375,6.375"/>
		<path fill="none" stroke="#000000" stroke-miterlimit="10" d="M175.916,595.006c0,0-2-5.25,0.125-6.5s4.75,0,7.75,0.375
			s19,1.625,22.875,1.625s11.75-0.25,10.75,2s-3.125,5.125-3.125,5.125"/>
		<path fill="none" stroke="#000000" stroke-miterlimit="10" d="M180.541,584.256c0,0-1.375-7.375,2.875-7.875s11.75,0,17.375,0.5
			s14.25,1.25,15.75,1.375s5.625,1.875-1.625,8.875"/>
		<path fill="none" stroke="#000000" stroke-miterlimit="10" d="M184.791,572.756c0,0-1.125-6.5,2.125-6.875s13.25,0.125,17.5,0.375
			s15.75,1.5,16.75,1.5s3.5,1.25,1.75,4.25s-2.875,4.125-2.875,4.125"/>
		<path fill="none" stroke="#000000" stroke-miterlimit="10" d="M188.666,562.131c0,0-1.5-7.5,0.75-8.5s13.875,0.25,18.25,0.5
			s15.875,0.5,18,1.375s3.375,2.875-1.75,9.25"/>
		<path fill="none" stroke="#000000" stroke-miterlimit="10" d="M196.666,549.381c0,0-2.875-7.25-0.625-8.5s6.625-1.25,9.625-0.875
			s19.25,1.375,21.75,1.5s6.125,2.25,5.125,4.5s-4.125,5.5-4.125,5.5"/>
		<path fill="none" stroke="#000000" stroke-miterlimit="10" d="M199.541,536.256c0,0-1.125-6.375,1.125-7.25s4.625,0.25,7.625,0.75
			s15.375,0.375,18.625,0.75s11.75-0.25,10.75,2s-5.125,6.5-5.125,6.5"/>
		<path fill="none" stroke="#000000" stroke-miterlimit="10" d="M203.791,526.006c0,0-1.375-6.875,0.75-7.125s8.5,0.5,11.875,0.75
			s15.625,0.25,17.75,0.375s8.375-0.5,7.125,2.625c-1.211,3.025-4.125,5.125-4.125,5.125"/>
		<path fill="none" stroke="#000000" stroke-miterlimit="10" d="M208.916,515.506c0,0-1.125-7,1.125-8.125s5.625,0,7.875,0.625
			s11.75,0.5,17,0.625s12.581-1.059,11.25,3.125c-0.875,2.75-3.5,5.625-3.5,5.625"/>
		<path fill="none" stroke="#000000" stroke-miterlimit="10" d="M217.666,502.256c0,0-0.75-7.125,2-8.125s5.5-0.25,9.5,0.125
			s17.25,0.875,19.625,1.125s6.25,0.25,4.875,2.625s-4.75,5.75-5,6.25"/>
		<path fill="none" stroke="#000000" stroke-miterlimit="10" d="M221.916,490.506c0,0-0.75-5.875,1-5.875s15.625,0.5,21,0.5
			s15,1,16.5,1.75s0.5,2.875-0.875,4s-2.125,2.125-2.125,2.125"/>
		<line fill="none" stroke="#000000" stroke-miterlimit="10" x1="259.291" y1="483.006" x2="265.166" y2="477.006"/>
		<line fill="none" stroke="#000000" stroke-miterlimit="10" x1="226.666" y1="482.131" x2="227.041" y2="476.631"/>
	</g>
	<path fill="#060808" d="M206.247,614.809c0,0,0.001-2.717,1.227-2.365c1.226,0.35,1.226,2.803,1.226,2.803L206.247,614.809z"/>
	<path fill="#060808" d="M206.685,602.807c0,0-1.577,1.051-1.489,2.189c0.088,1.141,0.701,1.402,1.577,0.965
		s1.664-1.227,1.752-1.928S207.735,602.369,206.685,602.807z"/>
	<path fill="#060808" d="M209.575,591.859c0,0-0.789,3.939-0.088,4.379c0.701,0.438,1.839-0.438,2.277-1.576
		s-0.262-2.717-1.313-2.979C209.399,591.42,209.926,591.51,209.575,591.859z"/>
	<path fill="#060808" d="M211.59,580.734c0,0-1.401,2.629-1.139,3.24c0.263,0.613,1.051,1.227,1.752,0.789
		c0.701-0.439,2.014-2.365,1.927-3.416C214.043,580.295,212.991,579.857,211.59,580.734z"/>
	<path fill="#060808" d="M216.233,570.396c0,0-1.314,1.578-0.701,2.365c0.613,0.789,2.54,0.703,3.153-0.438
		c0.613-1.139,0.875-2.189,0.175-2.627C218.16,569.258,217.109,569.434,216.233,570.396z"/>
	<path fill="#060808" d="M222.102,558.482c0,0-2.54,1.488-2.628,2.277s0.438,1.49,1.577,1.402s2.188-1.664,2.102-2.541
		C223.065,558.746,222.89,558.482,222.102,558.482z"/>
	<path fill="#060808" d="M227.357,545.08c0,0-2.627,1.928-2.803,2.453s1.489,2.014,2.803,0.789c1.313-1.227,1.488-2.539,1.051-2.979
		C227.971,544.906,228.409,544.73,227.357,545.08z"/>
	<path fill="#060808" d="M229.636,532.555c0,0-2.716,2.979-1.84,3.328s3.33-0.525,3.68-1.928
		C231.825,532.555,230.95,532.379,229.636,532.555z"/>
	<path fill="#060808" d="M233.228,523.357c0,0-2.015,2.102-0.788,2.365c1.227,0.262,3.153-0.963,3.679-1.928
		c0.525-0.963,0.788-1.488-0.613-1.488S233.928,522.744,233.228,523.357z"/>
	<path fill="#060808" d="M239.886,511.355c0,0-2.978,2.279-3.328,2.979c-0.351,0.701,0.35,1.752,1.839,1.139
		s3.416-2.363,3.153-3.416C241.287,511.006,240.937,510.918,239.886,511.355z"/>
	<path fill="#060808" d="M244.791,499.355c0,0-2.627,2.365-0.963,2.891s3.591-1.051,4.204-2.016
		c0.613-0.963,0.964-2.717-0.438-2.541S245.754,498.654,244.791,499.355z"/>
	<path fill="#060808" d="M254.865,488.316c0,0-2.278,1.928-2.278,2.629s0.964,1.139,2.716-0.176s2.892-2.104,2.453-2.541
		S256.092,487.354,254.865,488.316z"/>
	<path fill="#060808" d="M223.769,490.682c0,0-0.175-3.941,1.227-3.941s1.927,1.84,2.015,2.541s-0.175,1.752-0.175,1.752
		L223.769,490.682z"/>
	<path fill="#060808" d="M221.228,497.076c0,0-1.313,0.701-1.313,2.016s1.839,1.4,2.803,0.088
		C223.681,497.865,221.841,496.025,221.228,497.076z"/>
	<path fill="#060808" d="M211.855,510.217c0,0-0.614,0.352-0.526,2.016s2.015,2.014,2.365,0.438s0.087-1.051,0-1.576
		C213.607,510.566,212.645,509.779,211.855,510.217z"/>
	<path fill="#060808" d="M207.913,521.342c-0.7,0.176-1.663,2.016-1.313,2.891c0.35,0.877,2.891,0.963,3.065-1.051
		C209.84,521.166,208.613,521.168,207.913,521.342z"/>
	<path fill="#060808" d="M202.833,531.242c0,0-1.577,0.613-1.489,2.014c0.088,1.402,1.927,2.453,2.891,1.227
		S204.585,531.154,202.833,531.242z"/>
	<path fill="#060808" d="M199.591,542.98c0,0-1.402,0.35-1.489,2.014s0.789,2.365,1.665,2.365s1.488-1.402,1.576-2.629
		C201.431,543.506,200.467,542.805,199.591,542.98z"/>
	<path fill="#060808" d="M192.584,556.469c0,0-1.578,0.176-1.665,2.104c-0.087,1.926,0.964,1.838,1.84,1.926
		s1.226-1.051,1.313-2.189S193.548,556.469,192.584,556.469z"/>
	<path fill="#060808" d="M189.518,567.77c0,0-1.402,0.088-1.577,1.49c-0.175,1.4,0.702,1.664,1.402,1.752s1.139-0.701,1.401-1.84
		S190.131,567.77,189.518,567.77z"/>
	<path fill="#060808" d="M185.663,578.721c0,0-1.576,0.527-1.664,2.104s0.788,2.014,1.664,2.014s1.401-1.227,1.401-2.102
		C187.064,579.859,186.539,578.721,185.663,578.721z"/>
	<path fill="#060808" d="M180.407,590.195c0,0-1.751,0.527-1.839,1.928c-0.088,1.402,0.525,2.189,1.576,2.365
		s1.226-1.139,1.401-2.016C181.722,591.598,181.809,590.459,180.407,590.195z"/>
	<path fill="#060808" d="M177.079,600.621c-1.139,0.176-1.752,0.965-2.103,2.016s-0.35,2.363,0.964,2.715
		c1.313,0.35,2.365-1.051,2.628-2.102C178.831,602.197,178.218,600.447,177.079,600.621z"/>
	<path fill="#060808" d="M174.802,614.9c0,0-0.264-1.754,0.7-1.928c0.964-0.176,2.628,1.928,2.628,1.928H174.802z"/>
	<path fill="none" stroke="#000000" stroke-width="1.5" stroke-linecap="round" stroke-linejoin="round" stroke-miterlimit="10" d="
		M320.705,574.502c0,0,0.717,1.432,2.354,1.637s6.037-0.818,6.037-0.818l-3.99,3.172l5.525,0.82c0,0-6.447,1.021-8.084,4.195"/>
	<path fill="none" stroke="#000000" stroke-width="1.5" stroke-linecap="round" stroke-linejoin="round" stroke-miterlimit="10" d="
		M325.105,587.191c0,0,4.297,0.818,4.91-0.104c0.615-0.92-1.738-2.762-0.92-2.865c0.818-0.102,1.945-0.307,2.559,0.41
		s1.33,1.229,2.148,1.023"/>
	
		<line fill="none" stroke="#000000" stroke-width="1.5" stroke-linecap="round" stroke-linejoin="round" stroke-miterlimit="10" x1="323.979" y1="584.633" x2="324.9" y2="584.428"/>
</g>
</svg>
