<?xml version="1.0" encoding="UTF-8" standalone="no"?>
<svg width="53px" height="53px" viewBox="0 0 53 53" version="1.1" xmlns="http://www.w3.org/2000/svg" xmlns:xlink="http://www.w3.org/1999/xlink" xmlns:sketch="http://www.bohemiancoding.com/sketch/ns">
    <title>Slice 1</title>
    <description>Created with Sketch (http://www.bohemiancoding.com/sketch)</description>
    <defs></defs>
    <g id="Page-1" stroke="none" stroke-width="1" fill="none" fill-rule="evenodd" sketch:type="MSPage">
        <g id="js-logo" sketch:type="MSLayerGroup">
            <rect id="Rectangle" fill="#EFE04E" sketch:type="MSShapeGroup" x="0" y="0" width="53" height="53"></rect>
            <g id="Group" transform="translate(23.835800, 29.767700)" fill="#000000" sketch:type="MSShapeGroup">
                <path d="M14.638553,10.9379924 C14.7572033,11.5870793 14.9840314,12.0878459 15.319044,12.4403071 C15.6540566,12.7927682 16.1426093,12.9689962 16.7847168,12.9689962 C17.5245364,12.9689962 18.0881168,12.7090163 18.4754752,12.1890489 C18.8628335,11.6690814 19.0565098,11.0147697 19.0565098,10.2260941 C19.0565098,9.45137747 18.8750473,8.79706578 18.512117,8.26313943 C18.1491867,7.72921308 17.5838614,7.46225391 16.8161241,7.46225391 C16.4531938,7.46225391 16.1391242,7.50761952 15.8739059,7.5983521 C15.4062841,7.76585841 15.0538282,8.07643836 14.8165276,8.53010127 L12.1364401,8.40447217 L13.2042875,0.0187296387 L21.5690918,0.0187296387 L21.5690918,2.55224985 L15.3609204,2.55224985 L14.8165276,5.87095195 C15.2771699,5.57083649 15.6366052,5.37192573 15.894844,5.27421372 C16.3275687,5.11368684 16.8545077,5.03342461 17.4756769,5.03342461 C18.7319742,5.03342461 19.8277282,5.45567376 20.7629717,6.30018472 C21.6982153,7.14469568 22.16583,8.37305683 22.16583,9.98530503 C22.16583,11.3881703 21.7156636,12.6409591 20.8153172,13.743709 C19.9149708,14.8464588 18.5679611,15.3978255 16.7742478,15.3978255 C15.3295059,15.3978255 14.1430207,15.010473 13.2147565,14.2357563 C12.2864924,13.4610396 11.7700224,12.361796 11.665331,10.9379924 L14.638553,10.9379924 Z" id="5"></path>
                <path d="M3.51761484,9.14777769 L3.51761484,9.50372681 C3.54553256,10.6972092 3.6763949,11.536473 3.91020579,12.0215434 C4.14401667,12.5066137 4.64478322,12.7491453 5.41252046,12.7491453 C6.17327827,12.7491453 6.67578965,12.4839309 6.92006968,11.9534943 C7.0666377,11.63942 7.13992061,11.1089913 7.13992061,10.3621923 L7.13992061,-0.431441309 L10.3644009,-0.431441309 L10.3644009,10.3098469 C10.3644009,11.6219796 10.1375728,12.661899 9.68390991,13.4296362 C8.91617268,14.7278101 7.53077671,15.3768873 5.52768047,15.3768873 C3.52458422,15.3768873 2.18106421,14.8516931 1.49708013,13.801289 C0.813096043,12.7508849 0.471109131,11.3183785 0.471109131,9.50372681 L0.471109131,9.14777769 L3.51761484,9.14777769 Z" id="J"></path>
            </g>
        </g>
    </g>
</svg>